<mxfile host="Electron" modified="2020-08-04T08:16:04.018Z" agent="5.0 (Windows NT 10.0; Win64; x64) AppleWebKit/537.36 (KHTML, like Gecko) draw.io/13.4.5 Chrome/83.0.4103.122 Electron/9.1.0 Safari/537.36" etag="CmqYXScNyazxT9tZAABZ" compressed="false" version="13.4.5" type="device">
  <diagram id="9DA2rx6Lu59frwKv_Vx1" name="Page-1">
    <mxGraphModel dx="1673" dy="967" grid="1" gridSize="10" guides="1" tooltips="1" connect="1" arrows="1" fold="1" page="1" pageScale="1" pageWidth="1169" pageHeight="827" math="0" shadow="0">
      <root>
        <mxCell id="0" />
        <mxCell id="1" parent="0" />
        <mxCell id="jTKCQa8Fiy1gzTi8qNzt-13" style="edgeStyle=orthogonalEdgeStyle;rounded=0;orthogonalLoop=1;jettySize=auto;html=1;exitX=1;exitY=0.5;exitDx=0;exitDy=0;entryX=0;entryY=0.5;entryDx=0;entryDy=0;endArrow=none;endFill=0;" parent="1" edge="1">
          <mxGeometry relative="1" as="geometry">
            <Array as="points">
              <mxPoint x="220" y="450" />
              <mxPoint x="220" y="350" />
              <mxPoint x="70" y="350" />
              <mxPoint x="70" y="270" />
            </Array>
            <mxPoint x="200" y="450" as="sourcePoint" />
          </mxGeometry>
        </mxCell>
        <mxCell id="z6b60rfDBHGYwtap1ytb-36" style="edgeStyle=orthogonalEdgeStyle;rounded=0;orthogonalLoop=1;jettySize=auto;html=1;exitX=1;exitY=0.5;exitDx=0;exitDy=0;entryX=0;entryY=0.5;entryDx=0;entryDy=0;endArrow=none;endFill=0;" edge="1" parent="1" source="z6b60rfDBHGYwtap1ytb-32" target="z6b60rfDBHGYwtap1ytb-35">
          <mxGeometry relative="1" as="geometry" />
        </mxCell>
        <mxCell id="z6b60rfDBHGYwtap1ytb-32" value="" style="shape=image;verticalLabelPosition=bottom;labelBackgroundColor=#ffffff;verticalAlign=top;aspect=fixed;imageAspect=0;image=data:image/svg+xml,PHN2ZyB4bWxucz0iaHR0cDovL3d3dy53My5vcmcvMjAwMC9zdmciIHhtbG5zOmV2PSJodHRwOi8vd3d3LnczLm9yZy8yMDAxL3htbC1ldmVudHMiIHhtbG5zOnhsaW5rPSJodHRwOi8vd3d3LnczLm9yZy8xOTk5L3hsaW5rIiBiYXNlUHJvZmlsZT0iZnVsbCIgaGVpZ2h0PSI0MCIgdmVyc2lvbj0iMS4xIiB3aWR0aD0iNDAiIHZpZXdCb3g9IjAgMCA0MCA0MCI+PGRlZnMvPjxyZWN0IGZpbGw9IiNmZmZmZmYiIGhlaWdodD0iNDAiIHN0cm9rZT0iIzAwMDAwMCIgc3Ryb2tlLXdpZHRoPSIwLjUiIHdpZHRoPSI0MCIgeD0iMCIgeT0iMCIvPjxwb2x5Z29uIGZpbGw9IiNjNDcxNzkiIHBvaW50cz0iNDAsMTMuMzMzMzMzMzMzMzMzMzM2IDMzLjMzMzMzMzMzMzMzMzMzNiwyMC4wIDQwLDI2LjY2NjY2NjY2NjY2NjY2NCA0MCwxMy4zMzMzMzMzMzMzMzMzMzYiIHN0cm9rZT0iYmxhY2siIHN0cm9rZS13aWR0aD0iMC44Ii8+PHRleHQgc3R5bGU9ImZvbnQtc2l6ZTo4cHg7IGZvbnQtZmFtaWx5OkNvdXJpZXI7Zm9udC13ZWlnaHQ6Ym9sZDsiIHRleHQtYW5jaG9yPSJtaWRkbGUiIHg9IjIwIiB5PSIyMiI+UnVuPC90ZXh0PjxyZWN0IGZpbGw9Im5vbmUiIGhlaWdodD0iNDAiIHN0cm9rZT0iIzAwMDAwMCIgc3Ryb2tlLXdpZHRoPSIxLjYiIHdpZHRoPSI0MCIgeD0iMCIgeT0iMCIvPjwvc3ZnPg==;points=[[1, 0.5]];verticalLabelPosition=top;labelBackgroundColor=none;verticalAlign=bottom;aspect=fixed;imageAspect=0;fontFamily=Courier;fontSize=8;labelPosition=center;align=center;spacing=-1;fontStyle=1;syncNodeName=run;" vertex="1" parent="1">
          <mxGeometry x="120" y="240" width="40" height="40" as="geometry" />
        </mxCell>
        <mxCell id="z6b60rfDBHGYwtap1ytb-37" style="edgeStyle=orthogonalEdgeStyle;rounded=0;orthogonalLoop=1;jettySize=auto;html=1;exitX=1;exitY=0.5;exitDx=0;exitDy=0;entryX=0;entryY=0.5;entryDx=0;entryDy=0;endArrow=none;endFill=0;" edge="1" parent="1" source="z6b60rfDBHGYwtap1ytb-35" target="z6b60rfDBHGYwtap1ytb-80">
          <mxGeometry relative="1" as="geometry">
            <mxPoint x="280" y="220" as="targetPoint" />
          </mxGeometry>
        </mxCell>
        <mxCell id="z6b60rfDBHGYwtap1ytb-39" style="edgeStyle=orthogonalEdgeStyle;rounded=0;orthogonalLoop=1;jettySize=auto;html=1;exitX=1;exitY=0.5;exitDx=0;exitDy=0;entryX=0;entryY=0.5;entryDx=0;entryDy=0;endArrow=none;endFill=0;" edge="1" parent="1" source="z6b60rfDBHGYwtap1ytb-35" target="z6b60rfDBHGYwtap1ytb-38">
          <mxGeometry relative="1" as="geometry" />
        </mxCell>
        <mxCell id="z6b60rfDBHGYwtap1ytb-35" value="0" style="shape=image;verticalLabelPosition=bottom;labelBackgroundColor=#ffffff;verticalAlign=top;aspect=fixed;imageAspect=0;image=data:image/svg+xml,PHN2ZyB4bWxucz0iaHR0cDovL3d3dy53My5vcmcvMjAwMC9zdmciIHhtbG5zOmV2PSJodHRwOi8vd3d3LnczLm9yZy8yMDAxL3htbC1ldmVudHMiIHhtbG5zOnhsaW5rPSJodHRwOi8vd3d3LnczLm9yZy8xOTk5L3hsaW5rIiBiYXNlUHJvZmlsZT0iZnVsbCIgaGVpZ2h0PSI0MCIgdmVyc2lvbj0iMS4xIiB3aWR0aD0iNDAiIHZpZXdCb3g9IjAgMCA0MCA0MCI+PGRlZnMvPjxyZWN0IGZpbGw9IiNmZmZmZmYiIGhlaWdodD0iNDAiIHN0cm9rZT0iIzAwMDAwMCIgc3Ryb2tlLXdpZHRoPSIwLjUiIHdpZHRoPSI0MCIgeD0iMCIgeT0iMCIvPjxwb2x5Z29uIGZpbGw9IiNjNDcxNzkiIHBvaW50cz0iMCwxMy4zMzMzMzMzMzMzMzMzMzYgNi42NjY2NjY2NjY2NjY2NjYsMjAuMCAwLDI2LjY2NjY2NjY2NjY2NjY2NCAwLDEzLjMzMzMzMzMzMzMzMzMzNiIgc3Ryb2tlPSJibGFjayIgc3Ryb2tlLXdpZHRoPSIwLjgiLz48cG9seWdvbiBmaWxsPSIjYmZiZmJmIiBwb2ludHM9IjQwLDEzLjMzMzMzMzMzMzMzMzMzNiAzMy4zMzMzMzMzMzMzMzMzMzYsMjAuMCA0MCwyNi42NjY2NjY2NjY2NjY2NjQgNDAsMTMuMzMzMzMzMzMzMzMzMzM2IiBzdHJva2U9ImJsYWNrIiBzdHJva2Utd2lkdGg9IjAuOCIvPjx0ZXh0IHN0eWxlPSJmb250LXNpemU6OHB4OyBmb250LWZhbWlseTpDb3VyaWVyO2ZvbnQtd2VpZ2h0OmJvbGQ7IiB0ZXh0LWFuY2hvcj0ibWlkZGxlIiB4PSIyMCIgeT0iMjIiPkNvbnN0PC90ZXh0PjxyZWN0IGZpbGw9Im5vbmUiIGhlaWdodD0iNDAiIHN0cm9rZT0iIzAwMDAwMCIgc3Ryb2tlLXdpZHRoPSIxLjYiIHdpZHRoPSI0MCIgeD0iMCIgeT0iMCIvPjwvc3ZnPg==;points=[[0, 0.5], [1, 0.5]];verticalLabelPosition=top;labelBackgroundColor=none;verticalAlign=bottom;aspect=fixed;imageAspect=0;fontFamily=Courier;fontSize=8;labelPosition=center;align=center;spacing=-1;fontStyle=1;syncNodeName=const ctrl;" vertex="1" parent="1">
          <mxGeometry x="200" y="240" width="40" height="40" as="geometry" />
        </mxCell>
        <mxCell id="z6b60rfDBHGYwtap1ytb-41" style="edgeStyle=orthogonalEdgeStyle;rounded=0;orthogonalLoop=1;jettySize=auto;html=1;exitX=1;exitY=0.5;exitDx=0;exitDy=0;entryX=0;entryY=0.25;entryDx=0;entryDy=0;endArrow=none;endFill=0;" edge="1" parent="1" source="z6b60rfDBHGYwtap1ytb-38" target="z6b60rfDBHGYwtap1ytb-40">
          <mxGeometry relative="1" as="geometry" />
        </mxCell>
        <mxCell id="z6b60rfDBHGYwtap1ytb-38" value="oldValue" style="shape=image;verticalLabelPosition=bottom;labelBackgroundColor=#ffffff;verticalAlign=top;aspect=fixed;imageAspect=0;image=data:image/svg+xml,PHN2ZyB4bWxucz0iaHR0cDovL3d3dy53My5vcmcvMjAwMC9zdmciIHhtbG5zOmV2PSJodHRwOi8vd3d3LnczLm9yZy8yMDAxL3htbC1ldmVudHMiIHhtbG5zOnhsaW5rPSJodHRwOi8vd3d3LnczLm9yZy8xOTk5L3hsaW5rIiBiYXNlUHJvZmlsZT0iZnVsbCIgaGVpZ2h0PSI0MCIgdmVyc2lvbj0iMS4xIiB3aWR0aD0iNDAiIHZpZXdCb3g9IjAgMCA0MCA0MCI+PGRlZnMvPjxyZWN0IGZpbGw9IiNmZmZmZmYiIGhlaWdodD0iNDAiIHN0cm9rZT0iIzAwMDAwMCIgc3Ryb2tlLXdpZHRoPSIwLjUiIHdpZHRoPSI0MCIgeD0iMCIgeT0iMCIvPjxwb2x5Z29uIGZpbGw9IiNiZmJmYmYiIHBvaW50cz0iMCwxMy4zMzMzMzMzMzMzMzMzMzYgNi42NjY2NjY2NjY2NjY2NjYsMjAuMCAwLDI2LjY2NjY2NjY2NjY2NjY2NCAwLDEzLjMzMzMzMzMzMzMzMzMzNiIgc3Ryb2tlPSJibGFjayIgc3Ryb2tlLXdpZHRoPSIwLjgiLz48cG9seWdvbiBmaWxsPSIjYzQ3MTc5IiBwb2ludHM9IjQwLDEzLjMzMzMzMzMzMzMzMzMzNiAzMy4zMzMzMzMzMzMzMzMzMzYsMjAuMCA0MCwyNi42NjY2NjY2NjY2NjY2NjQgNDAsMTMuMzMzMzMzMzMzMzMzMzM2IiBzdHJva2U9ImJsYWNrIiBzdHJva2Utd2lkdGg9IjAuOCIvPjx0ZXh0IHN0eWxlPSJmb250LXNpemU6OHB4OyBmb250LWZhbWlseTpDb3VyaWVyO2ZvbnQtd2VpZ2h0OmJvbGQ7IiB0ZXh0LWFuY2hvcj0ibWlkZGxlIiB4PSIyMCIgeT0iMjIiPlZhcjwvdGV4dD48cmVjdCBmaWxsPSJub25lIiBoZWlnaHQ9IjQwIiBzdHJva2U9IiMwMDAwMDAiIHN0cm9rZS13aWR0aD0iMS42IiB3aWR0aD0iNDAiIHg9IjAiIHk9IjAiLz48L3N2Zz4=;points=[[0, 0.5], [1, 0.5]];verticalLabelPosition=top;labelBackgroundColor=none;verticalAlign=bottom;aspect=fixed;imageAspect=0;fontFamily=Courier;fontSize=8;labelPosition=center;align=center;spacing=-1;fontStyle=1;syncNodeName=var set;" vertex="1" parent="1">
          <mxGeometry x="280" y="280" width="40" height="40" as="geometry" />
        </mxCell>
        <mxCell id="z6b60rfDBHGYwtap1ytb-48" style="edgeStyle=orthogonalEdgeStyle;rounded=0;orthogonalLoop=1;jettySize=auto;html=1;exitX=1;exitY=0.25;exitDx=0;exitDy=0;entryX=0;entryY=0.5;entryDx=0;entryDy=0;endArrow=none;endFill=0;" edge="1" parent="1" source="z6b60rfDBHGYwtap1ytb-40" target="z6b60rfDBHGYwtap1ytb-47">
          <mxGeometry relative="1" as="geometry" />
        </mxCell>
        <mxCell id="z6b60rfDBHGYwtap1ytb-51" style="edgeStyle=orthogonalEdgeStyle;rounded=0;orthogonalLoop=1;jettySize=auto;html=1;exitX=1;exitY=0.75;exitDx=0;exitDy=0;entryX=0;entryY=0.5;entryDx=0;entryDy=0;endArrow=none;endFill=0;" edge="1" parent="1" source="z6b60rfDBHGYwtap1ytb-40" target="z6b60rfDBHGYwtap1ytb-50">
          <mxGeometry relative="1" as="geometry" />
        </mxCell>
        <mxCell id="z6b60rfDBHGYwtap1ytb-40" value="" style="shape=image;verticalLabelPosition=bottom;labelBackgroundColor=#ffffff;verticalAlign=top;aspect=fixed;imageAspect=0;image=data:image/svg+xml,PHN2ZyB4bWxucz0iaHR0cDovL3d3dy53My5vcmcvMjAwMC9zdmciIHhtbG5zOmV2PSJodHRwOi8vd3d3LnczLm9yZy8yMDAxL3htbC1ldmVudHMiIHhtbG5zOnhsaW5rPSJodHRwOi8vd3d3LnczLm9yZy8xOTk5L3hsaW5rIiBiYXNlUHJvZmlsZT0iZnVsbCIgaGVpZ2h0PSI4MCIgdmVyc2lvbj0iMS4xIiB3aWR0aD0iNDAiIHZpZXdCb3g9IjAgMCA0MCA4MCI+PGRlZnMvPjxyZWN0IGZpbGw9IiNmZmZmZmYiIGhlaWdodD0iODAiIHN0cm9rZT0iIzAwMDAwMCIgc3Ryb2tlLXdpZHRoPSIwLjUiIHdpZHRoPSI0MCIgeD0iMCIgeT0iMCIvPjxwb2x5Z29uIGZpbGw9IiNjNDcxNzkiIHBvaW50cz0iMCwxMy4zMzMzMzMzMzMzMzMzMzYgNi42NjY2NjY2NjY2NjY2NjYsMjAuMCAwLDI2LjY2NjY2NjY2NjY2NjY2NCAwLDEzLjMzMzMzMzMzMzMzMzMzNiIgc3Ryb2tlPSJibGFjayIgc3Ryb2tlLXdpZHRoPSIwLjgiLz48cG9seWdvbiBmaWxsPSIjYTE4NmJlIiBwb2ludHM9IjAsNTMuMzMzMzMzMzMzMzMzMzMgNi42NjY2NjY2NjY2NjY2NjYsNjAuMCAwLDY2LjY2NjY2NjY2NjY2NjY3IDAsNTMuMzMzMzMzMzMzMzMzMzMiIHN0cm9rZT0iYmxhY2siIHN0cm9rZS13aWR0aD0iMC44Ii8+PHBvbHlnb24gZmlsbD0iI2M0NzE3OSIgcG9pbnRzPSI0MCwxMy4zMzMzMzMzMzMzMzMzMzYgMzMuMzMzMzMzMzMzMzMzMzM2LDIwLjAgNDAsMjYuNjY2NjY2NjY2NjY2NjY0IDQwLDEzLjMzMzMzMzMzMzMzMzMzNiIgc3Ryb2tlPSJibGFjayIgc3Ryb2tlLXdpZHRoPSIwLjgiLz48cG9seWdvbiBmaWxsPSIjYzQ3MTc5IiBwb2ludHM9IjQwLDUzLjMzMzMzMzMzMzMzMzMzIDMzLjMzMzMzMzMzMzMzMzMzNiw2MC4wIDQwLDY2LjY2NjY2NjY2NjY2NjY3IDQwLDUzLjMzMzMzMzMzMzMzMzMzIiBzdHJva2U9ImJsYWNrIiBzdHJva2Utd2lkdGg9IjAuOCIvPjx0ZXh0IHN0eWxlPSJmb250LXNpemU6OHB4OyBmb250LWZhbWlseTpDb3VyaWVyO2ZvbnQtd2VpZ2h0OmJvbGQ7IiB0ZXh0LWFuY2hvcj0ibWlkZGxlIiB4PSIyMCIgeT0iMjIiPldoaWxlPC90ZXh0PjxyZWN0IGZpbGw9Im5vbmUiIGhlaWdodD0iODAiIHN0cm9rZT0iIzAwMDAwMCIgc3Ryb2tlLXdpZHRoPSIxLjYiIHdpZHRoPSI0MCIgeD0iMCIgeT0iMCIvPjwvc3ZnPg==;points=[[0, 0.25], [0, 0.75], [1, 0.25], [1, 0.75]];verticalLabelPosition=top;labelBackgroundColor=none;verticalAlign=bottom;aspect=fixed;imageAspect=0;fontFamily=Courier;fontSize=8;labelPosition=center;align=center;spacing=-1;fontStyle=1;syncNodeName=while;" vertex="1" parent="1">
          <mxGeometry x="360" y="280" width="40" height="80" as="geometry" />
        </mxCell>
        <mxCell id="z6b60rfDBHGYwtap1ytb-45" style="edgeStyle=orthogonalEdgeStyle;rounded=0;orthogonalLoop=1;jettySize=auto;html=1;exitX=1;exitY=0.5;exitDx=0;exitDy=0;entryX=0;entryY=0.5;entryDx=0;entryDy=0;endArrow=none;endFill=0;" edge="1" parent="1" source="z6b60rfDBHGYwtap1ytb-42" target="z6b60rfDBHGYwtap1ytb-44">
          <mxGeometry relative="1" as="geometry" />
        </mxCell>
        <mxCell id="z6b60rfDBHGYwtap1ytb-42" value="" style="shape=image;verticalLabelPosition=bottom;labelBackgroundColor=#ffffff;verticalAlign=top;aspect=fixed;imageAspect=0;image=data:image/svg+xml,PHN2ZyB4bWxucz0iaHR0cDovL3d3dy53My5vcmcvMjAwMC9zdmciIHhtbG5zOmV2PSJodHRwOi8vd3d3LnczLm9yZy8yMDAxL3htbC1ldmVudHMiIHhtbG5zOnhsaW5rPSJodHRwOi8vd3d3LnczLm9yZy8xOTk5L3hsaW5rIiBiYXNlUHJvZmlsZT0iZnVsbCIgaGVpZ2h0PSI0MCIgdmVyc2lvbj0iMS4xIiB3aWR0aD0iNDAiIHZpZXdCb3g9IjAgMCA0MCA0MCI+PGRlZnMvPjxyZWN0IGZpbGw9IiNmZmZmZmYiIGhlaWdodD0iNDAiIHN0cm9rZT0iIzAwMDAwMCIgc3Ryb2tlLXdpZHRoPSIwLjUiIHdpZHRoPSI0MCIgeD0iMCIgeT0iMCIvPjxwb2x5Z29uIGZpbGw9IiNiZmJmYmYiIHBvaW50cz0iMCwxMy4zMzMzMzMzMzMzMzMzMzYgNi42NjY2NjY2NjY2NjY2NjYsMjAuMCAwLDI2LjY2NjY2NjY2NjY2NjY2NCAwLDEzLjMzMzMzMzMzMzMzMzMzNiIgc3Ryb2tlPSJibGFjayIgc3Ryb2tlLXdpZHRoPSIwLjgiLz48cG9seWdvbiBmaWxsPSIjYzQ3MTc5IiBwb2ludHM9IjQwLDEzLjMzMzMzMzMzMzMzMzMzNiAzMy4zMzMzMzMzMzMzMzMzMzYsMjAuMCA0MCwyNi42NjY2NjY2NjY2NjY2NjQgNDAsMTMuMzMzMzMzMzMzMzMzMzM2IiBzdHJva2U9ImJsYWNrIiBzdHJva2Utd2lkdGg9IjAuOCIvPjx0ZXh0IHN0eWxlPSJmb250LXNpemU6OHB4OyBmb250LWZhbWlseTpDb3VyaWVyO2ZvbnQtd2VpZ2h0OmJvbGQ7IiB0ZXh0LWFuY2hvcj0ibWlkZGxlIiB4PSIyMCIgeT0iMjIiPlByaW50PC90ZXh0PjxyZWN0IGZpbGw9Im5vbmUiIGhlaWdodD0iNDAiIHN0cm9rZT0iIzAwMDAwMCIgc3Ryb2tlLXdpZHRoPSIxLjYiIHdpZHRoPSI0MCIgeD0iMCIgeT0iMCIvPjwvc3ZnPg==;points=[[0, 0.5], [1, 0.5]];verticalLabelPosition=top;labelBackgroundColor=none;verticalAlign=bottom;aspect=fixed;imageAspect=0;fontFamily=Courier;fontSize=8;labelPosition=center;align=center;spacing=-1;fontStyle=1;syncNodeName=print ctrl;" vertex="1" parent="1">
          <mxGeometry x="520" y="280" width="40" height="40" as="geometry" />
        </mxCell>
        <mxCell id="z6b60rfDBHGYwtap1ytb-44" value="" style="shape=image;verticalLabelPosition=bottom;labelBackgroundColor=#ffffff;verticalAlign=top;aspect=fixed;imageAspect=0;image=data:image/svg+xml,PHN2ZyB4bWxucz0iaHR0cDovL3d3dy53My5vcmcvMjAwMC9zdmciIHhtbG5zOmV2PSJodHRwOi8vd3d3LnczLm9yZy8yMDAxL3htbC1ldmVudHMiIHhtbG5zOnhsaW5rPSJodHRwOi8vd3d3LnczLm9yZy8xOTk5L3hsaW5rIiBiYXNlUHJvZmlsZT0iZnVsbCIgaGVpZ2h0PSI0MCIgdmVyc2lvbj0iMS4xIiB3aWR0aD0iNDAiIHZpZXdCb3g9IjAgMCA0MCA0MCI+PGRlZnMvPjxyZWN0IGZpbGw9IiNmZmZmZmYiIGhlaWdodD0iNDAiIHN0cm9rZT0iIzAwMDAwMCIgc3Ryb2tlLXdpZHRoPSIwLjUiIHdpZHRoPSI0MCIgeD0iMCIgeT0iMCIvPjxwb2x5Z29uIGZpbGw9IiNjNDcxNzkiIHBvaW50cz0iMCwxMy4zMzMzMzMzMzMzMzMzMzYgNi42NjY2NjY2NjY2NjY2NjYsMjAuMCAwLDI2LjY2NjY2NjY2NjY2NjY2NCAwLDEzLjMzMzMzMzMzMzMzMzMzNiIgc3Ryb2tlPSJibGFjayIgc3Ryb2tlLXdpZHRoPSIwLjgiLz48dGV4dCBzdHlsZT0iZm9udC1zaXplOjhweDsgZm9udC1mYW1pbHk6Q291cmllcjtmb250LXdlaWdodDpib2xkOyIgdGV4dC1hbmNob3I9Im1pZGRsZSIgeD0iMjAiIHk9IjIyIj5TdG9wPC90ZXh0PjxyZWN0IGZpbGw9Im5vbmUiIGhlaWdodD0iNDAiIHN0cm9rZT0iIzAwMDAwMCIgc3Ryb2tlLXdpZHRoPSIxLjYiIHdpZHRoPSI0MCIgeD0iMCIgeT0iMCIvPjwvc3ZnPg==;points=[[0, 0.5]];verticalLabelPosition=top;labelBackgroundColor=none;verticalAlign=bottom;aspect=fixed;imageAspect=0;fontFamily=Courier;fontSize=8;labelPosition=center;align=center;spacing=-1;fontStyle=1;syncNodeName=stop;" vertex="1" parent="1">
          <mxGeometry x="600" y="280" width="40" height="40" as="geometry" />
        </mxCell>
        <mxCell id="z6b60rfDBHGYwtap1ytb-49" style="edgeStyle=orthogonalEdgeStyle;rounded=0;orthogonalLoop=1;jettySize=auto;html=1;exitX=1;exitY=0.5;exitDx=0;exitDy=0;entryX=0;entryY=0.5;entryDx=0;entryDy=0;endArrow=none;endFill=0;" edge="1" parent="1" source="z6b60rfDBHGYwtap1ytb-47" target="z6b60rfDBHGYwtap1ytb-42">
          <mxGeometry relative="1" as="geometry" />
        </mxCell>
        <mxCell id="z6b60rfDBHGYwtap1ytb-47" value="li" style="shape=image;verticalLabelPosition=bottom;labelBackgroundColor=#ffffff;verticalAlign=top;aspect=fixed;imageAspect=0;image=data:image/svg+xml,PHN2ZyB4bWxucz0iaHR0cDovL3d3dy53My5vcmcvMjAwMC9zdmciIHhtbG5zOmV2PSJodHRwOi8vd3d3LnczLm9yZy8yMDAxL3htbC1ldmVudHMiIHhtbG5zOnhsaW5rPSJodHRwOi8vd3d3LnczLm9yZy8xOTk5L3hsaW5rIiBiYXNlUHJvZmlsZT0iZnVsbCIgaGVpZ2h0PSI0MCIgdmVyc2lvbj0iMS4xIiB3aWR0aD0iNDAiIHZpZXdCb3g9IjAgMCA0MCA0MCI+PGRlZnMvPjxyZWN0IGZpbGw9IiNmZmZmZmYiIGhlaWdodD0iNDAiIHN0cm9rZT0iIzAwMDAwMCIgc3Ryb2tlLXdpZHRoPSIwLjUiIHdpZHRoPSI0MCIgeD0iMCIgeT0iMCIvPjxwb2x5Z29uIGZpbGw9IiNjNDcxNzkiIHBvaW50cz0iMCwxMy4zMzMzMzMzMzMzMzMzMzYgNi42NjY2NjY2NjY2NjY2NjYsMjAuMCAwLDI2LjY2NjY2NjY2NjY2NjY2NCAwLDEzLjMzMzMzMzMzMzMzMzMzNiIgc3Ryb2tlPSJibGFjayIgc3Ryb2tlLXdpZHRoPSIwLjgiLz48cG9seWdvbiBmaWxsPSIjYmZiZmJmIiBwb2ludHM9IjQwLDEzLjMzMzMzMzMzMzMzMzMzNiAzMy4zMzMzMzMzMzMzMzMzMzYsMjAuMCA0MCwyNi42NjY2NjY2NjY2NjY2NjQgNDAsMTMuMzMzMzMzMzMzMzMzMzM2IiBzdHJva2U9ImJsYWNrIiBzdHJva2Utd2lkdGg9IjAuOCIvPjx0ZXh0IHN0eWxlPSJmb250LXNpemU6OHB4OyBmb250LWZhbWlseTpDb3VyaWVyO2ZvbnQtd2VpZ2h0OmJvbGQ7IiB0ZXh0LWFuY2hvcj0ibWlkZGxlIiB4PSIyMCIgeT0iMjIiPlZhcjwvdGV4dD48cmVjdCBmaWxsPSJub25lIiBoZWlnaHQ9IjQwIiBzdHJva2U9IiMwMDAwMDAiIHN0cm9rZS13aWR0aD0iMS42IiB3aWR0aD0iNDAiIHg9IjAiIHk9IjAiLz48L3N2Zz4=;points=[[0, 0.5], [1, 0.5]];verticalLabelPosition=top;labelBackgroundColor=none;verticalAlign=bottom;aspect=fixed;imageAspect=0;fontFamily=Courier;fontSize=8;labelPosition=center;align=center;spacing=-1;fontStyle=1;syncNodeName=var get;" vertex="1" parent="1">
          <mxGeometry x="440" y="280" width="40" height="40" as="geometry" />
        </mxCell>
        <mxCell id="z6b60rfDBHGYwtap1ytb-55" style="edgeStyle=orthogonalEdgeStyle;rounded=0;orthogonalLoop=1;jettySize=auto;html=1;exitX=1;exitY=0.5;exitDx=0;exitDy=0;entryX=0;entryY=0.3333333333333333;entryDx=0;entryDy=0;endArrow=none;endFill=0;" edge="1" parent="1" source="z6b60rfDBHGYwtap1ytb-50" target="z6b60rfDBHGYwtap1ytb-52">
          <mxGeometry relative="1" as="geometry" />
        </mxCell>
        <mxCell id="z6b60rfDBHGYwtap1ytb-60" style="edgeStyle=orthogonalEdgeStyle;rounded=0;orthogonalLoop=1;jettySize=auto;html=1;exitX=1;exitY=0.5;exitDx=0;exitDy=0;entryX=0;entryY=0.5;entryDx=0;entryDy=0;endArrow=none;endFill=0;" edge="1" parent="1" source="z6b60rfDBHGYwtap1ytb-50" target="z6b60rfDBHGYwtap1ytb-59">
          <mxGeometry relative="1" as="geometry" />
        </mxCell>
        <mxCell id="z6b60rfDBHGYwtap1ytb-50" value="" style="shape=image;verticalLabelPosition=bottom;labelBackgroundColor=#ffffff;verticalAlign=top;aspect=fixed;imageAspect=0;image=data:image/svg+xml,PHN2ZyB4bWxucz0iaHR0cDovL3d3dy53My5vcmcvMjAwMC9zdmciIHhtbG5zOmV2PSJodHRwOi8vd3d3LnczLm9yZy8yMDAxL3htbC1ldmVudHMiIHhtbG5zOnhsaW5rPSJodHRwOi8vd3d3LnczLm9yZy8xOTk5L3hsaW5rIiBiYXNlUHJvZmlsZT0iZnVsbCIgaGVpZ2h0PSI0MCIgdmVyc2lvbj0iMS4xIiB3aWR0aD0iNDAiIHZpZXdCb3g9IjAgMCA0MCA0MCI+PGRlZnMvPjxyZWN0IGZpbGw9IiNmZmZmZmYiIGhlaWdodD0iNDAiIHN0cm9rZT0iIzAwMDAwMCIgc3Ryb2tlLXdpZHRoPSIwLjUiIHdpZHRoPSI0MCIgeD0iMCIgeT0iMCIvPjxwb2x5Z29uIGZpbGw9IiNjNDcxNzkiIHBvaW50cz0iMCwxMy4zMzMzMzMzMzMzMzMzMzYgNi42NjY2NjY2NjY2NjY2NjYsMjAuMCAwLDI2LjY2NjY2NjY2NjY2NjY2NCAwLDEzLjMzMzMzMzMzMzMzMzMzNiIgc3Ryb2tlPSJibGFjayIgc3Ryb2tlLXdpZHRoPSIwLjgiLz48cG9seWdvbiBmaWxsPSIjYmZiZmJmIiBwb2ludHM9IjQwLDEzLjMzMzMzMzMzMzMzMzMzNiAzMy4zMzMzMzMzMzMzMzMzMzYsMjAuMCA0MCwyNi42NjY2NjY2NjY2NjY2NjQgNDAsMTMuMzMzMzMzMzMzMzMzMzM2IiBzdHJva2U9ImJsYWNrIiBzdHJva2Utd2lkdGg9IjAuOCIvPjx0ZXh0IHN0eWxlPSJmb250LXNpemU6OHB4OyBmb250LWZhbWlseTpDb3VyaWVyO2ZvbnQtd2VpZ2h0OmJvbGQ7IiB0ZXh0LWFuY2hvcj0ibWlkZGxlIiB4PSIyMCIgeT0iMjIiPklucHV0PC90ZXh0PjxyZWN0IGZpbGw9Im5vbmUiIGhlaWdodD0iNDAiIHN0cm9rZT0iIzAwMDAwMCIgc3Ryb2tlLXdpZHRoPSIxLjYiIHdpZHRoPSI0MCIgeD0iMCIgeT0iMCIvPjwvc3ZnPg==;points=[[0, 0.5], [1, 0.5]];verticalLabelPosition=top;labelBackgroundColor=none;verticalAlign=bottom;aspect=fixed;imageAspect=0;fontFamily=Courier;fontSize=8;labelPosition=center;align=center;spacing=-1;fontStyle=1;syncNodeName=input;" vertex="1" parent="1">
          <mxGeometry x="440" y="360" width="40" height="40" as="geometry" />
        </mxCell>
        <mxCell id="z6b60rfDBHGYwtap1ytb-57" style="edgeStyle=orthogonalEdgeStyle;rounded=0;orthogonalLoop=1;jettySize=auto;html=1;exitX=1;exitY=0.5;exitDx=0;exitDy=0;entryX=0;entryY=0.6666666666666666;entryDx=0;entryDy=0;endArrow=none;endFill=0;" edge="1" parent="1" source="z6b60rfDBHGYwtap1ytb-52" target="z6b60rfDBHGYwtap1ytb-56">
          <mxGeometry relative="1" as="geometry" />
        </mxCell>
        <mxCell id="z6b60rfDBHGYwtap1ytb-58" style="edgeStyle=orthogonalEdgeStyle;rounded=0;orthogonalLoop=1;jettySize=auto;html=1;exitX=1;exitY=0.5;exitDx=0;exitDy=0;entryX=0;entryY=0.3333333333333333;entryDx=0;entryDy=0;endArrow=none;endFill=0;" edge="1" parent="1" source="z6b60rfDBHGYwtap1ytb-52" target="z6b60rfDBHGYwtap1ytb-56">
          <mxGeometry relative="1" as="geometry" />
        </mxCell>
        <mxCell id="z6b60rfDBHGYwtap1ytb-52" value="" style="shape=image;verticalLabelPosition=bottom;labelBackgroundColor=#ffffff;verticalAlign=top;aspect=fixed;imageAspect=0;image=data:image/svg+xml,PHN2ZyB4bWxucz0iaHR0cDovL3d3dy53My5vcmcvMjAwMC9zdmciIHhtbG5zOmV2PSJodHRwOi8vd3d3LnczLm9yZy8yMDAxL3htbC1ldmVudHMiIHhtbG5zOnhsaW5rPSJodHRwOi8vd3d3LnczLm9yZy8xOTk5L3hsaW5rIiBiYXNlUHJvZmlsZT0iZnVsbCIgaGVpZ2h0PSI0MCIgdmVyc2lvbj0iMS4xIiB3aWR0aD0iNDAiIHZpZXdCb3g9IjAgMCA0MCA0MCI+PGRlZnMvPjxyZWN0IGZpbGw9IiNmZmZmZmYiIGhlaWdodD0iNDAiIHN0cm9rZT0iIzAwMDAwMCIgc3Ryb2tlLXdpZHRoPSIwLjUiIHdpZHRoPSI0MCIgeD0iMCIgeT0iMCIvPjxwb2x5Z29uIGZpbGw9IiNiZmJmYmYiIHBvaW50cz0iMCw2LjY2NjY2NjY2NjY2NjY2NiA2LjY2NjY2NjY2NjY2NjY2NiwxMy4zMzMzMzMzMzMzMzMzMzIgMCwyMC4wIDAsNi42NjY2NjY2NjY2NjY2NjYiIHN0cm9rZT0iYmxhY2siIHN0cm9rZS13aWR0aD0iMC44Ii8+PHBvbHlnb24gZmlsbD0iI2JmYmZiZiIgcG9pbnRzPSIwLDIwLjAgNi42NjY2NjY2NjY2NjY2NjYsMjYuNjY2NjY2NjY2NjY2NjY0IDAsMzMuMzMzMzMzMzMzMzMzMzMgMCwyMC4wIiBzdHJva2U9ImJsYWNrIiBzdHJva2Utd2lkdGg9IjAuOCIvPjxwb2x5Z29uIGZpbGw9IiNhMTg2YmUiIHBvaW50cz0iNDAsMTMuMzMzMzMzMzMzMzMzMzM2IDMzLjMzMzMzMzMzMzMzMzMzNiwyMC4wIDQwLDI2LjY2NjY2NjY2NjY2NjY2NCA0MCwxMy4zMzMzMzMzMzMzMzMzMzYiIHN0cm9rZT0iYmxhY2siIHN0cm9rZS13aWR0aD0iMC44Ii8+PHRleHQgc3R5bGU9ImZvbnQtc2l6ZTo4cHg7IGZvbnQtZmFtaWx5OkNvdXJpZXI7Zm9udC13ZWlnaHQ6Ym9sZDsiIHRleHQtYW5jaG9yPSJtaWRkbGUiIHg9IjIwIiB5PSIyMiI+YSE9YjwvdGV4dD48cmVjdCBmaWxsPSJub25lIiBoZWlnaHQ9IjQwIiBzdHJva2U9IiMwMDAwMDAiIHN0cm9rZS13aWR0aD0iMS42IiB3aWR0aD0iNDAiIHg9IjAiIHk9IjAiLz48L3N2Zz4=;points=[[0, 0.3333333333333333], [0, 0.6666666666666666], [1, 0.5]];verticalLabelPosition=top;labelBackgroundColor=none;verticalAlign=bottom;aspect=fixed;imageAspect=0;fontFamily=Courier;fontSize=8;labelPosition=center;align=center;spacing=-1;fontStyle=1;syncNodeName=not equal;" vertex="1" parent="1">
          <mxGeometry x="520" y="400" width="40" height="40" as="geometry" />
        </mxCell>
        <mxCell id="z6b60rfDBHGYwtap1ytb-54" style="edgeStyle=orthogonalEdgeStyle;rounded=0;orthogonalLoop=1;jettySize=auto;html=1;exitX=1;exitY=0.5;exitDx=0;exitDy=0;entryX=0;entryY=0.6666666666666666;entryDx=0;entryDy=0;endArrow=none;endFill=0;" edge="1" parent="1" source="z6b60rfDBHGYwtap1ytb-53" target="z6b60rfDBHGYwtap1ytb-52">
          <mxGeometry relative="1" as="geometry" />
        </mxCell>
        <mxCell id="z6b60rfDBHGYwtap1ytb-53" value="0" style="shape=image;verticalLabelPosition=bottom;labelBackgroundColor=#ffffff;verticalAlign=top;aspect=fixed;imageAspect=0;image=data:image/svg+xml,PHN2ZyB4bWxucz0iaHR0cDovL3d3dy53My5vcmcvMjAwMC9zdmciIHhtbG5zOmV2PSJodHRwOi8vd3d3LnczLm9yZy8yMDAxL3htbC1ldmVudHMiIHhtbG5zOnhsaW5rPSJodHRwOi8vd3d3LnczLm9yZy8xOTk5L3hsaW5rIiBiYXNlUHJvZmlsZT0iZnVsbCIgaGVpZ2h0PSI0MCIgdmVyc2lvbj0iMS4xIiB3aWR0aD0iNDAiIHZpZXdCb3g9IjAgMCA0MCA0MCI+PGRlZnMvPjxyZWN0IGZpbGw9IiNmZmZmZmYiIGhlaWdodD0iNDAiIHN0cm9rZT0iIzAwMDAwMCIgc3Ryb2tlLXdpZHRoPSIwLjUiIHdpZHRoPSI0MCIgeD0iMCIgeT0iMCIvPjxwb2x5Z29uIGZpbGw9IiNiZmJmYmYiIHBvaW50cz0iNDAsMTMuMzMzMzMzMzMzMzMzMzM2IDMzLjMzMzMzMzMzMzMzMzMzNiwyMC4wIDQwLDI2LjY2NjY2NjY2NjY2NjY2NCA0MCwxMy4zMzMzMzMzMzMzMzMzMzYiIHN0cm9rZT0iYmxhY2siIHN0cm9rZS13aWR0aD0iMC44Ii8+PHRleHQgc3R5bGU9ImZvbnQtc2l6ZTo4cHg7IGZvbnQtZmFtaWx5OkNvdXJpZXI7Zm9udC13ZWlnaHQ6Ym9sZDsiIHRleHQtYW5jaG9yPSJtaWRkbGUiIHg9IjIwIiB5PSIyMiI+Q29uc3Q8L3RleHQ+PHJlY3QgZmlsbD0ibm9uZSIgaGVpZ2h0PSI0MCIgc3Ryb2tlPSIjMDAwMDAwIiBzdHJva2Utd2lkdGg9IjEuNiIgd2lkdGg9IjQwIiB4PSIwIiB5PSIwIi8+PC9zdmc+;points=[[1, 0.5]];verticalLabelPosition=top;labelBackgroundColor=none;verticalAlign=bottom;aspect=fixed;imageAspect=0;fontFamily=Courier;fontSize=8;labelPosition=center;align=center;spacing=-1;fontStyle=1;syncNodeName=const;" vertex="1" parent="1">
          <mxGeometry x="440" y="440" width="40" height="40" as="geometry" />
        </mxCell>
        <mxCell id="z6b60rfDBHGYwtap1ytb-62" style="edgeStyle=orthogonalEdgeStyle;rounded=0;orthogonalLoop=1;jettySize=auto;html=1;exitX=1;exitY=0.3333333333333333;exitDx=0;exitDy=0;entryX=0;entryY=0.5;entryDx=0;entryDy=0;endArrow=none;endFill=0;" edge="1" parent="1" source="z6b60rfDBHGYwtap1ytb-56" target="z6b60rfDBHGYwtap1ytb-61">
          <mxGeometry relative="1" as="geometry">
            <Array as="points">
              <mxPoint x="670" y="453" />
              <mxPoint x="670" y="460" />
            </Array>
          </mxGeometry>
        </mxCell>
        <mxCell id="z6b60rfDBHGYwtap1ytb-68" style="edgeStyle=orthogonalEdgeStyle;rounded=0;orthogonalLoop=1;jettySize=auto;html=1;exitX=1;exitY=0.6666666666666666;exitDx=0;exitDy=0;entryX=0;entryY=0.5;entryDx=0;entryDy=0;endArrow=none;endFill=0;" edge="1" parent="1" source="z6b60rfDBHGYwtap1ytb-56" target="z6b60rfDBHGYwtap1ytb-66">
          <mxGeometry relative="1" as="geometry">
            <Array as="points">
              <mxPoint x="660" y="467" />
              <mxPoint x="660" y="500" />
              <mxPoint x="180" y="500" />
              <mxPoint x="180" y="420" />
            </Array>
          </mxGeometry>
        </mxCell>
        <mxCell id="z6b60rfDBHGYwtap1ytb-99" style="edgeStyle=orthogonalEdgeStyle;rounded=0;orthogonalLoop=1;jettySize=auto;html=1;exitX=1;exitY=0.3333333333333333;exitDx=0;exitDy=0;entryX=0;entryY=0.5;entryDx=0;entryDy=0;endArrow=none;endFill=0;" edge="1" parent="1" source="z6b60rfDBHGYwtap1ytb-56" target="z6b60rfDBHGYwtap1ytb-97">
          <mxGeometry relative="1" as="geometry" />
        </mxCell>
        <mxCell id="z6b60rfDBHGYwtap1ytb-56" value="" style="shape=image;verticalLabelPosition=bottom;labelBackgroundColor=#ffffff;verticalAlign=top;aspect=fixed;imageAspect=0;image=data:image/svg+xml,PHN2ZyB4bWxucz0iaHR0cDovL3d3dy53My5vcmcvMjAwMC9zdmciIHhtbG5zOmV2PSJodHRwOi8vd3d3LnczLm9yZy8yMDAxL3htbC1ldmVudHMiIHhtbG5zOnhsaW5rPSJodHRwOi8vd3d3LnczLm9yZy8xOTk5L3hsaW5rIiBiYXNlUHJvZmlsZT0iZnVsbCIgaGVpZ2h0PSI0MCIgdmVyc2lvbj0iMS4xIiB3aWR0aD0iNDAiIHZpZXdCb3g9IjAgMCA0MCA0MCI+PGRlZnMvPjxyZWN0IGZpbGw9IiNmZmZmZmYiIGhlaWdodD0iNDAiIHN0cm9rZT0iIzAwMDAwMCIgc3Ryb2tlLXdpZHRoPSIwLjUiIHdpZHRoPSI0MCIgeD0iMCIgeT0iMCIvPjxwb2x5Z29uIGZpbGw9IiNjNDcxNzkiIHBvaW50cz0iMCw2LjY2NjY2NjY2NjY2NjY2NiA2LjY2NjY2NjY2NjY2NjY2NiwxMy4zMzMzMzMzMzMzMzMzMzIgMCwyMC4wIDAsNi42NjY2NjY2NjY2NjY2NjYiIHN0cm9rZT0iYmxhY2siIHN0cm9rZS13aWR0aD0iMC44Ii8+PHBvbHlnb24gZmlsbD0iI2ExODZiZSIgcG9pbnRzPSIwLDIwLjAgNi42NjY2NjY2NjY2NjY2NjYsMjYuNjY2NjY2NjY2NjY2NjY0IDAsMzMuMzMzMzMzMzMzMzMzMzMgMCwyMC4wIiBzdHJva2U9ImJsYWNrIiBzdHJva2Utd2lkdGg9IjAuOCIvPjxwb2x5Z29uIGZpbGw9IiNjNDcxNzkiIHBvaW50cz0iNDAsNi42NjY2NjY2NjY2NjY2NjYgMzMuMzMzMzMzMzMzMzMzMzM2LDEzLjMzMzMzMzMzMzMzMzMzMiA0MCwyMC4wIDQwLDYuNjY2NjY2NjY2NjY2NjY2IiBzdHJva2U9ImJsYWNrIiBzdHJva2Utd2lkdGg9IjAuOCIvPjxwb2x5Z29uIGZpbGw9IiNjNDcxNzkiIHBvaW50cz0iNDAsMjAuMCAzMy4zMzMzMzMzMzMzMzMzMzYsMjYuNjY2NjY2NjY2NjY2NjY0IDQwLDMzLjMzMzMzMzMzMzMzMzMzIDQwLDIwLjAiIHN0cm9rZT0iYmxhY2siIHN0cm9rZS13aWR0aD0iMC44Ii8+PHRleHQgc3R5bGU9ImZvbnQtc2l6ZTo4cHg7IGZvbnQtZmFtaWx5OkNvdXJpZXI7Zm9udC13ZWlnaHQ6Ym9sZDsiIHRleHQtYW5jaG9yPSJtaWRkbGUiIHg9IjIwIiB5PSIyMiI+SWY8L3RleHQ+PHJlY3QgZmlsbD0ibm9uZSIgaGVpZ2h0PSI0MCIgc3Ryb2tlPSIjMDAwMDAwIiBzdHJva2Utd2lkdGg9IjEuNiIgd2lkdGg9IjQwIiB4PSIwIiB5PSIwIi8+PC9zdmc+;points=[[0, 0.3333333333333333], [0, 0.6666666666666666], [1, 0.3333333333333333], [1, 0.6666666666666666]];verticalLabelPosition=top;labelBackgroundColor=none;verticalAlign=bottom;aspect=fixed;imageAspect=0;fontFamily=Courier;fontSize=8;labelPosition=center;align=center;spacing=-1;fontStyle=1;syncNodeName=if;" vertex="1" parent="1">
          <mxGeometry x="600" y="440" width="40" height="40" as="geometry" />
        </mxCell>
        <mxCell id="z6b60rfDBHGYwtap1ytb-59" value="newValue" style="shape=image;verticalLabelPosition=bottom;labelBackgroundColor=#ffffff;verticalAlign=top;aspect=fixed;imageAspect=0;image=data:image/svg+xml,PHN2ZyB4bWxucz0iaHR0cDovL3d3dy53My5vcmcvMjAwMC9zdmciIHhtbG5zOmV2PSJodHRwOi8vd3d3LnczLm9yZy8yMDAxL3htbC1ldmVudHMiIHhtbG5zOnhsaW5rPSJodHRwOi8vd3d3LnczLm9yZy8xOTk5L3hsaW5rIiBiYXNlUHJvZmlsZT0iZnVsbCIgaGVpZ2h0PSI0MCIgdmVyc2lvbj0iMS4xIiB3aWR0aD0iNDAiIHZpZXdCb3g9IjAgMCA0MCA0MCI+PGRlZnMvPjxyZWN0IGZpbGw9IiNmZmZmZmYiIGhlaWdodD0iNDAiIHN0cm9rZT0iIzAwMDAwMCIgc3Ryb2tlLXdpZHRoPSIwLjUiIHdpZHRoPSI0MCIgeD0iMCIgeT0iMCIvPjxwb2x5Z29uIGZpbGw9IiNiZmJmYmYiIHBvaW50cz0iMCwxMy4zMzMzMzMzMzMzMzMzMzYgNi42NjY2NjY2NjY2NjY2NjYsMjAuMCAwLDI2LjY2NjY2NjY2NjY2NjY2NCAwLDEzLjMzMzMzMzMzMzMzMzMzNiIgc3Ryb2tlPSJibGFjayIgc3Ryb2tlLXdpZHRoPSIwLjgiLz48cG9seWdvbiBmaWxsPSIjYmZiZmJmIiBwb2ludHM9IjQwLDEzLjMzMzMzMzMzMzMzMzMzNiAzMy4zMzMzMzMzMzMzMzMzMzYsMjAuMCA0MCwyNi42NjY2NjY2NjY2NjY2NjQgNDAsMTMuMzMzMzMzMzMzMzMzMzM2IiBzdHJva2U9ImJsYWNrIiBzdHJva2Utd2lkdGg9IjAuOCIvPjx0ZXh0IHN0eWxlPSJmb250LXNpemU6OHB4OyBmb250LWZhbWlseTpDb3VyaWVyO2ZvbnQtd2VpZ2h0OmJvbGQ7IiB0ZXh0LWFuY2hvcj0ibWlkZGxlIiB4PSIyMCIgeT0iMjIiPlZhcjwvdGV4dD48cmVjdCBmaWxsPSJub25lIiBoZWlnaHQ9IjQwIiBzdHJva2U9IiMwMDAwMDAiIHN0cm9rZS13aWR0aD0iMS42IiB3aWR0aD0iNDAiIHg9IjAiIHk9IjAiLz48L3N2Zz4=;points=[[0, 0.5], [1, 0.5]];verticalLabelPosition=top;labelBackgroundColor=none;verticalAlign=bottom;aspect=fixed;imageAspect=0;fontFamily=Courier;fontSize=8;labelPosition=center;align=center;spacing=-1;fontStyle=1;syncNodeName=var;" vertex="1" parent="1">
          <mxGeometry x="600" y="360" width="40" height="40" as="geometry" />
        </mxCell>
        <mxCell id="z6b60rfDBHGYwtap1ytb-73" style="edgeStyle=orthogonalEdgeStyle;rounded=0;orthogonalLoop=1;jettySize=auto;html=1;exitX=1;exitY=0.5;exitDx=0;exitDy=0;entryX=0;entryY=0.6666666666666666;entryDx=0;entryDy=0;endArrow=none;endFill=0;" edge="1" parent="1" source="z6b60rfDBHGYwtap1ytb-61" target="z6b60rfDBHGYwtap1ytb-71">
          <mxGeometry relative="1" as="geometry" />
        </mxCell>
        <mxCell id="z6b60rfDBHGYwtap1ytb-61" value="oldValue" style="shape=image;verticalLabelPosition=bottom;labelBackgroundColor=#ffffff;verticalAlign=top;aspect=fixed;imageAspect=0;image=data:image/svg+xml,PHN2ZyB4bWxucz0iaHR0cDovL3d3dy53My5vcmcvMjAwMC9zdmciIHhtbG5zOmV2PSJodHRwOi8vd3d3LnczLm9yZy8yMDAxL3htbC1ldmVudHMiIHhtbG5zOnhsaW5rPSJodHRwOi8vd3d3LnczLm9yZy8xOTk5L3hsaW5rIiBiYXNlUHJvZmlsZT0iZnVsbCIgaGVpZ2h0PSI0MCIgdmVyc2lvbj0iMS4xIiB3aWR0aD0iNDAiIHZpZXdCb3g9IjAgMCA0MCA0MCI+PGRlZnMvPjxyZWN0IGZpbGw9IiNmZmZmZmYiIGhlaWdodD0iNDAiIHN0cm9rZT0iIzAwMDAwMCIgc3Ryb2tlLXdpZHRoPSIwLjUiIHdpZHRoPSI0MCIgeD0iMCIgeT0iMCIvPjxwb2x5Z29uIGZpbGw9IiNjNDcxNzkiIHBvaW50cz0iMCwxMy4zMzMzMzMzMzMzMzMzMzYgNi42NjY2NjY2NjY2NjY2NjYsMjAuMCAwLDI2LjY2NjY2NjY2NjY2NjY2NCAwLDEzLjMzMzMzMzMzMzMzMzMzNiIgc3Ryb2tlPSJibGFjayIgc3Ryb2tlLXdpZHRoPSIwLjgiLz48cG9seWdvbiBmaWxsPSIjYmZiZmJmIiBwb2ludHM9IjQwLDEzLjMzMzMzMzMzMzMzMzMzNiAzMy4zMzMzMzMzMzMzMzMzMzYsMjAuMCA0MCwyNi42NjY2NjY2NjY2NjY2NjQgNDAsMTMuMzMzMzMzMzMzMzMzMzM2IiBzdHJva2U9ImJsYWNrIiBzdHJva2Utd2lkdGg9IjAuOCIvPjx0ZXh0IHN0eWxlPSJmb250LXNpemU6OHB4OyBmb250LWZhbWlseTpDb3VyaWVyO2ZvbnQtd2VpZ2h0OmJvbGQ7IiB0ZXh0LWFuY2hvcj0ibWlkZGxlIiB4PSIyMCIgeT0iMjIiPlZhcjwvdGV4dD48cmVjdCBmaWxsPSJub25lIiBoZWlnaHQ9IjQwIiBzdHJva2U9IiMwMDAwMDAiIHN0cm9rZS13aWR0aD0iMS42IiB3aWR0aD0iNDAiIHg9IjAiIHk9IjAiLz48L3N2Zz4=;points=[[0, 0.5], [1, 0.5]];verticalLabelPosition=top;labelBackgroundColor=none;verticalAlign=bottom;aspect=fixed;imageAspect=0;fontFamily=Courier;fontSize=8;labelPosition=center;align=center;spacing=-1;fontStyle=1;syncNodeName=var get;" vertex="1" parent="1">
          <mxGeometry x="680" y="440" width="40" height="40" as="geometry" />
        </mxCell>
        <mxCell id="z6b60rfDBHGYwtap1ytb-64" style="edgeStyle=orthogonalEdgeStyle;rounded=0;orthogonalLoop=1;jettySize=auto;html=1;exitX=1;exitY=0.5;exitDx=0;exitDy=0;entryX=0;entryY=0.75;entryDx=0;entryDy=0;endArrow=none;endFill=0;" edge="1" parent="1" source="z6b60rfDBHGYwtap1ytb-63" target="z6b60rfDBHGYwtap1ytb-40">
          <mxGeometry relative="1" as="geometry" />
        </mxCell>
        <mxCell id="z6b60rfDBHGYwtap1ytb-63" value="" style="shape=image;verticalLabelPosition=bottom;labelBackgroundColor=#ffffff;verticalAlign=top;aspect=fixed;imageAspect=0;image=data:image/svg+xml,PHN2ZyB4bWxucz0iaHR0cDovL3d3dy53My5vcmcvMjAwMC9zdmciIHhtbG5zOmV2PSJodHRwOi8vd3d3LnczLm9yZy8yMDAxL3htbC1ldmVudHMiIHhtbG5zOnhsaW5rPSJodHRwOi8vd3d3LnczLm9yZy8xOTk5L3hsaW5rIiBiYXNlUHJvZmlsZT0iZnVsbCIgaGVpZ2h0PSI0MCIgdmVyc2lvbj0iMS4xIiB3aWR0aD0iNDAiIHZpZXdCb3g9IjAgMCA0MCA0MCI+PGRlZnMvPjxyZWN0IGZpbGw9IiNmZmZmZmYiIGhlaWdodD0iNDAiIHN0cm9rZT0iIzAwMDAwMCIgc3Ryb2tlLXdpZHRoPSIwLjUiIHdpZHRoPSI0MCIgeD0iMCIgeT0iMCIvPjxwb2x5Z29uIGZpbGw9IiNiZmJmYmYiIHBvaW50cz0iMCw2LjY2NjY2NjY2NjY2NjY2NiA2LjY2NjY2NjY2NjY2NjY2Niw2LjY2NjY2NjY2NjY2NjY2NiA2LjY2NjY2NjY2NjY2NjY2NiwzMy4zMzMzMzMzMzMzMzMzMyAwLDMzLjMzMzMzMzMzMzMzMzMzIDAsNi42NjY2NjY2NjY2NjY2NjYiIHN0cm9rZT0iYmxhY2siIHN0cm9rZS13aWR0aD0iMC44Ii8+PHBvbHlnb24gZmlsbD0iI2JmYmZiZiIgcG9pbnRzPSI0MCwxMy4zMzMzMzMzMzMzMzMzMzYgMzMuMzMzMzMzMzMzMzMzMzM2LDIwLjAgNDAsMjYuNjY2NjY2NjY2NjY2NjY0IDQwLDEzLjMzMzMzMzMzMzMzMzMzNiIgc3Ryb2tlPSJibGFjayIgc3Ryb2tlLXdpZHRoPSIwLjgiLz48dGV4dCBzdHlsZT0iZm9udC1zaXplOjhweDsgZm9udC1mYW1pbHk6Q291cmllcjtmb250LXdlaWdodDpib2xkOyIgdGV4dC1hbmNob3I9Im1pZGRsZSIgeD0iMjAiIHk9IjIyIj4mZ3Q7LTwvdGV4dD48cmVjdCBmaWxsPSJub25lIiBoZWlnaHQ9IjQwIiBzdHJva2U9IiMwMDAwMDAiIHN0cm9rZS13aWR0aD0iMS42IiB3aWR0aD0iNDAiIHg9IjAiIHk9IjAiLz48L3N2Zz4=;points=[[0, 0.25], [0, 0.3333333333333333], [0, 0.41666666666666663], [0, 0.5], [0, 0.5833333333333333], [0, 0.6666666666666666], [0, 0.75], [1, 0.5]];verticalLabelPosition=top;labelBackgroundColor=none;verticalAlign=bottom;aspect=fixed;imageAspect=0;fontFamily=Courier;fontSize=8;labelPosition=center;align=center;spacing=-1;fontStyle=1;syncNodeName=value switch;" vertex="1" parent="1">
          <mxGeometry x="280" y="360" width="40" height="40" as="geometry" />
        </mxCell>
        <mxCell id="z6b60rfDBHGYwtap1ytb-67" style="edgeStyle=orthogonalEdgeStyle;rounded=0;orthogonalLoop=1;jettySize=auto;html=1;exitX=1;exitY=0.5;exitDx=0;exitDy=0;entryX=0;entryY=0.6666666666666666;entryDx=0;entryDy=0;endArrow=none;endFill=0;" edge="1" parent="1" source="z6b60rfDBHGYwtap1ytb-66" target="z6b60rfDBHGYwtap1ytb-63">
          <mxGeometry relative="1" as="geometry" />
        </mxCell>
        <mxCell id="z6b60rfDBHGYwtap1ytb-66" value="$false" style="shape=image;verticalLabelPosition=bottom;labelBackgroundColor=#ffffff;verticalAlign=top;aspect=fixed;imageAspect=0;image=data:image/svg+xml,PHN2ZyB4bWxucz0iaHR0cDovL3d3dy53My5vcmcvMjAwMC9zdmciIHhtbG5zOmV2PSJodHRwOi8vd3d3LnczLm9yZy8yMDAxL3htbC1ldmVudHMiIHhtbG5zOnhsaW5rPSJodHRwOi8vd3d3LnczLm9yZy8xOTk5L3hsaW5rIiBiYXNlUHJvZmlsZT0iZnVsbCIgaGVpZ2h0PSI0MCIgdmVyc2lvbj0iMS4xIiB3aWR0aD0iNDAiIHZpZXdCb3g9IjAgMCA0MCA0MCI+PGRlZnMvPjxyZWN0IGZpbGw9IiNmZmZmZmYiIGhlaWdodD0iNDAiIHN0cm9rZT0iIzAwMDAwMCIgc3Ryb2tlLXdpZHRoPSIwLjUiIHdpZHRoPSI0MCIgeD0iMCIgeT0iMCIvPjxwb2x5Z29uIGZpbGw9IiNjNDcxNzkiIHBvaW50cz0iMCwxMy4zMzMzMzMzMzMzMzMzMzYgNi42NjY2NjY2NjY2NjY2NjYsMjAuMCAwLDI2LjY2NjY2NjY2NjY2NjY2NCAwLDEzLjMzMzMzMzMzMzMzMzMzNiIgc3Ryb2tlPSJibGFjayIgc3Ryb2tlLXdpZHRoPSIwLjgiLz48cG9seWdvbiBmaWxsPSIjYmZiZmJmIiBwb2ludHM9IjQwLDEzLjMzMzMzMzMzMzMzMzMzNiAzMy4zMzMzMzMzMzMzMzMzMzYsMjAuMCA0MCwyNi42NjY2NjY2NjY2NjY2NjQgNDAsMTMuMzMzMzMzMzMzMzMzMzM2IiBzdHJva2U9ImJsYWNrIiBzdHJva2Utd2lkdGg9IjAuOCIvPjx0ZXh0IHN0eWxlPSJmb250LXNpemU6OHB4OyBmb250LWZhbWlseTpDb3VyaWVyO2ZvbnQtd2VpZ2h0OmJvbGQ7IiB0ZXh0LWFuY2hvcj0ibWlkZGxlIiB4PSIyMCIgeT0iMjIiPkNvbnN0PC90ZXh0PjxyZWN0IGZpbGw9Im5vbmUiIGhlaWdodD0iNDAiIHN0cm9rZT0iIzAwMDAwMCIgc3Ryb2tlLXdpZHRoPSIxLjYiIHdpZHRoPSI0MCIgeD0iMCIgeT0iMCIvPjwvc3ZnPg==;points=[[0, 0.5], [1, 0.5]];verticalLabelPosition=top;labelBackgroundColor=none;verticalAlign=bottom;aspect=fixed;imageAspect=0;fontFamily=Courier;fontSize=8;labelPosition=center;align=center;spacing=-1;fontStyle=1;syncNodeName=const ctrl;" vertex="1" parent="1">
          <mxGeometry x="200" y="400" width="40" height="40" as="geometry" />
        </mxCell>
        <mxCell id="z6b60rfDBHGYwtap1ytb-70" style="edgeStyle=orthogonalEdgeStyle;rounded=0;orthogonalLoop=1;jettySize=auto;html=1;exitX=1;exitY=0.5;exitDx=0;exitDy=0;entryX=0;entryY=0.41666666666666663;entryDx=0;entryDy=0;endArrow=none;endFill=0;" edge="1" parent="1" source="z6b60rfDBHGYwtap1ytb-69" target="z6b60rfDBHGYwtap1ytb-63">
          <mxGeometry relative="1" as="geometry" />
        </mxCell>
        <mxCell id="z6b60rfDBHGYwtap1ytb-69" value="$true" style="shape=image;verticalLabelPosition=bottom;labelBackgroundColor=#ffffff;verticalAlign=top;aspect=fixed;imageAspect=0;image=data:image/svg+xml,PHN2ZyB4bWxucz0iaHR0cDovL3d3dy53My5vcmcvMjAwMC9zdmciIHhtbG5zOmV2PSJodHRwOi8vd3d3LnczLm9yZy8yMDAxL3htbC1ldmVudHMiIHhtbG5zOnhsaW5rPSJodHRwOi8vd3d3LnczLm9yZy8xOTk5L3hsaW5rIiBiYXNlUHJvZmlsZT0iZnVsbCIgaGVpZ2h0PSI0MCIgdmVyc2lvbj0iMS4xIiB3aWR0aD0iNDAiIHZpZXdCb3g9IjAgMCA0MCA0MCI+PGRlZnMvPjxyZWN0IGZpbGw9IiNmZmZmZmYiIGhlaWdodD0iNDAiIHN0cm9rZT0iIzAwMDAwMCIgc3Ryb2tlLXdpZHRoPSIwLjUiIHdpZHRoPSI0MCIgeD0iMCIgeT0iMCIvPjxwb2x5Z29uIGZpbGw9IiNjNDcxNzkiIHBvaW50cz0iMCwxMy4zMzMzMzMzMzMzMzMzMzYgNi42NjY2NjY2NjY2NjY2NjYsMjAuMCAwLDI2LjY2NjY2NjY2NjY2NjY2NCAwLDEzLjMzMzMzMzMzMzMzMzMzNiIgc3Ryb2tlPSJibGFjayIgc3Ryb2tlLXdpZHRoPSIwLjgiLz48cG9seWdvbiBmaWxsPSIjYmZiZmJmIiBwb2ludHM9IjQwLDEzLjMzMzMzMzMzMzMzMzMzNiAzMy4zMzMzMzMzMzMzMzMzMzYsMjAuMCA0MCwyNi42NjY2NjY2NjY2NjY2NjQgNDAsMTMuMzMzMzMzMzMzMzMzMzM2IiBzdHJva2U9ImJsYWNrIiBzdHJva2Utd2lkdGg9IjAuOCIvPjx0ZXh0IHN0eWxlPSJmb250LXNpemU6OHB4OyBmb250LWZhbWlseTpDb3VyaWVyO2ZvbnQtd2VpZ2h0OmJvbGQ7IiB0ZXh0LWFuY2hvcj0ibWlkZGxlIiB4PSIyMCIgeT0iMjIiPkNvbnN0PC90ZXh0PjxyZWN0IGZpbGw9Im5vbmUiIGhlaWdodD0iNDAiIHN0cm9rZT0iIzAwMDAwMCIgc3Ryb2tlLXdpZHRoPSIxLjYiIHdpZHRoPSI0MCIgeD0iMCIgeT0iMCIvPjwvc3ZnPg==;points=[[0, 0.5], [1, 0.5]];verticalLabelPosition=top;labelBackgroundColor=none;verticalAlign=bottom;aspect=fixed;imageAspect=0;fontFamily=Courier;fontSize=8;labelPosition=center;align=center;spacing=-1;fontStyle=1;syncNodeName=const ctrl;" vertex="1" parent="1">
          <mxGeometry x="200" y="320" width="40" height="40" as="geometry" />
        </mxCell>
        <mxCell id="z6b60rfDBHGYwtap1ytb-75" style="edgeStyle=orthogonalEdgeStyle;rounded=0;orthogonalLoop=1;jettySize=auto;html=1;exitX=1;exitY=0.5;exitDx=0;exitDy=0;entryX=0;entryY=0.3333333333333333;entryDx=0;entryDy=0;endArrow=none;endFill=0;" edge="1" parent="1" source="z6b60rfDBHGYwtap1ytb-71" target="z6b60rfDBHGYwtap1ytb-74">
          <mxGeometry relative="1" as="geometry" />
        </mxCell>
        <mxCell id="z6b60rfDBHGYwtap1ytb-76" style="edgeStyle=orthogonalEdgeStyle;rounded=0;orthogonalLoop=1;jettySize=auto;html=1;exitX=1;exitY=0.5;exitDx=0;exitDy=0;entryX=0;entryY=0.6666666666666666;entryDx=0;entryDy=0;endArrow=none;endFill=0;" edge="1" parent="1" source="z6b60rfDBHGYwtap1ytb-71" target="z6b60rfDBHGYwtap1ytb-74">
          <mxGeometry relative="1" as="geometry" />
        </mxCell>
        <mxCell id="z6b60rfDBHGYwtap1ytb-71" value="" style="shape=image;verticalLabelPosition=bottom;labelBackgroundColor=#ffffff;verticalAlign=top;aspect=fixed;imageAspect=0;image=data:image/svg+xml,PHN2ZyB4bWxucz0iaHR0cDovL3d3dy53My5vcmcvMjAwMC9zdmciIHhtbG5zOmV2PSJodHRwOi8vd3d3LnczLm9yZy8yMDAxL3htbC1ldmVudHMiIHhtbG5zOnhsaW5rPSJodHRwOi8vd3d3LnczLm9yZy8xOTk5L3hsaW5rIiBiYXNlUHJvZmlsZT0iZnVsbCIgaGVpZ2h0PSI0MCIgdmVyc2lvbj0iMS4xIiB3aWR0aD0iNDAiIHZpZXdCb3g9IjAgMCA0MCA0MCI+PGRlZnMvPjxyZWN0IGZpbGw9IiNmZmZmZmYiIGhlaWdodD0iNDAiIHN0cm9rZT0iIzAwMDAwMCIgc3Ryb2tlLXdpZHRoPSIwLjUiIHdpZHRoPSI0MCIgeD0iMCIgeT0iMCIvPjxwb2x5Z29uIGZpbGw9IiNiZmJmYmYiIHBvaW50cz0iMCw2LjY2NjY2NjY2NjY2NjY2NiA2LjY2NjY2NjY2NjY2NjY2NiwxMy4zMzMzMzMzMzMzMzMzMzIgMCwyMC4wIDAsNi42NjY2NjY2NjY2NjY2NjYiIHN0cm9rZT0iYmxhY2siIHN0cm9rZS13aWR0aD0iMC44Ii8+PHBvbHlnb24gZmlsbD0iI2JmYmZiZiIgcG9pbnRzPSIwLDIwLjAgNi42NjY2NjY2NjY2NjY2NjYsMjYuNjY2NjY2NjY2NjY2NjY0IDAsMzMuMzMzMzMzMzMzMzMzMzMgMCwyMC4wIiBzdHJva2U9ImJsYWNrIiBzdHJva2Utd2lkdGg9IjAuOCIvPjxwb2x5Z29uIGZpbGw9IiNhMTg2YmUiIHBvaW50cz0iNDAsMTMuMzMzMzMzMzMzMzMzMzM2IDMzLjMzMzMzMzMzMzMzMzMzNiwyMC4wIDQwLDI2LjY2NjY2NjY2NjY2NjY2NCA0MCwxMy4zMzMzMzMzMzMzMzMzMzYiIHN0cm9rZT0iYmxhY2siIHN0cm9rZS13aWR0aD0iMC44Ii8+PHRleHQgc3R5bGU9ImZvbnQtc2l6ZTo4cHg7IGZvbnQtZmFtaWx5OkNvdXJpZXI7Zm9udC13ZWlnaHQ6Ym9sZDsiIHRleHQtYW5jaG9yPSJtaWRkbGUiIHg9IjIwIiB5PSIyMiI+YSZsdDtiPC90ZXh0PjxyZWN0IGZpbGw9Im5vbmUiIGhlaWdodD0iNDAiIHN0cm9rZT0iIzAwMDAwMCIgc3Ryb2tlLXdpZHRoPSIxLjYiIHdpZHRoPSI0MCIgeD0iMCIgeT0iMCIvPjwvc3ZnPg==;points=[[0, 0.3333333333333333], [0, 0.6666666666666666], [1, 0.5]];verticalLabelPosition=top;labelBackgroundColor=none;verticalAlign=bottom;aspect=fixed;imageAspect=0;fontFamily=Courier;fontSize=8;labelPosition=center;align=center;spacing=-1;fontStyle=1;syncNodeName=less;" vertex="1" parent="1">
          <mxGeometry x="760" y="400" width="40" height="40" as="geometry" />
        </mxCell>
        <mxCell id="z6b60rfDBHGYwtap1ytb-84" style="edgeStyle=orthogonalEdgeStyle;rounded=0;orthogonalLoop=1;jettySize=auto;html=1;exitX=1;exitY=0.3333333333333333;exitDx=0;exitDy=0;entryX=0;entryY=0.5;entryDx=0;entryDy=0;endArrow=none;endFill=0;" edge="1" parent="1" source="z6b60rfDBHGYwtap1ytb-74" target="z6b60rfDBHGYwtap1ytb-82">
          <mxGeometry relative="1" as="geometry" />
        </mxCell>
        <mxCell id="z6b60rfDBHGYwtap1ytb-88" style="edgeStyle=orthogonalEdgeStyle;rounded=0;orthogonalLoop=1;jettySize=auto;html=1;exitX=1;exitY=0.6666666666666666;exitDx=0;exitDy=0;entryX=0;entryY=0.6666666666666666;entryDx=0;entryDy=0;endArrow=none;endFill=0;" edge="1" parent="1" source="z6b60rfDBHGYwtap1ytb-74" target="z6b60rfDBHGYwtap1ytb-86">
          <mxGeometry relative="1" as="geometry" />
        </mxCell>
        <mxCell id="z6b60rfDBHGYwtap1ytb-74" value="" style="shape=image;verticalLabelPosition=bottom;labelBackgroundColor=#ffffff;verticalAlign=top;aspect=fixed;imageAspect=0;image=data:image/svg+xml,PHN2ZyB4bWxucz0iaHR0cDovL3d3dy53My5vcmcvMjAwMC9zdmciIHhtbG5zOmV2PSJodHRwOi8vd3d3LnczLm9yZy8yMDAxL3htbC1ldmVudHMiIHhtbG5zOnhsaW5rPSJodHRwOi8vd3d3LnczLm9yZy8xOTk5L3hsaW5rIiBiYXNlUHJvZmlsZT0iZnVsbCIgaGVpZ2h0PSI0MCIgdmVyc2lvbj0iMS4xIiB3aWR0aD0iNDAiIHZpZXdCb3g9IjAgMCA0MCA0MCI+PGRlZnMvPjxyZWN0IGZpbGw9IiNmZmZmZmYiIGhlaWdodD0iNDAiIHN0cm9rZT0iIzAwMDAwMCIgc3Ryb2tlLXdpZHRoPSIwLjUiIHdpZHRoPSI0MCIgeD0iMCIgeT0iMCIvPjxwb2x5Z29uIGZpbGw9IiNjNDcxNzkiIHBvaW50cz0iMCw2LjY2NjY2NjY2NjY2NjY2NiA2LjY2NjY2NjY2NjY2NjY2NiwxMy4zMzMzMzMzMzMzMzMzMzIgMCwyMC4wIDAsNi42NjY2NjY2NjY2NjY2NjYiIHN0cm9rZT0iYmxhY2siIHN0cm9rZS13aWR0aD0iMC44Ii8+PHBvbHlnb24gZmlsbD0iI2ExODZiZSIgcG9pbnRzPSIwLDIwLjAgNi42NjY2NjY2NjY2NjY2NjYsMjYuNjY2NjY2NjY2NjY2NjY0IDAsMzMuMzMzMzMzMzMzMzMzMzMgMCwyMC4wIiBzdHJva2U9ImJsYWNrIiBzdHJva2Utd2lkdGg9IjAuOCIvPjxwb2x5Z29uIGZpbGw9IiNjNDcxNzkiIHBvaW50cz0iNDAsNi42NjY2NjY2NjY2NjY2NjYgMzMuMzMzMzMzMzMzMzMzMzM2LDEzLjMzMzMzMzMzMzMzMzMzMiA0MCwyMC4wIDQwLDYuNjY2NjY2NjY2NjY2NjY2IiBzdHJva2U9ImJsYWNrIiBzdHJva2Utd2lkdGg9IjAuOCIvPjxwb2x5Z29uIGZpbGw9IiNjNDcxNzkiIHBvaW50cz0iNDAsMjAuMCAzMy4zMzMzMzMzMzMzMzMzMzYsMjYuNjY2NjY2NjY2NjY2NjY0IDQwLDMzLjMzMzMzMzMzMzMzMzMzIDQwLDIwLjAiIHN0cm9rZT0iYmxhY2siIHN0cm9rZS13aWR0aD0iMC44Ii8+PHRleHQgc3R5bGU9ImZvbnQtc2l6ZTo4cHg7IGZvbnQtZmFtaWx5OkNvdXJpZXI7Zm9udC13ZWlnaHQ6Ym9sZDsiIHRleHQtYW5jaG9yPSJtaWRkbGUiIHg9IjIwIiB5PSIyMiI+SWY8L3RleHQ+PHJlY3QgZmlsbD0ibm9uZSIgaGVpZ2h0PSI0MCIgc3Ryb2tlPSIjMDAwMDAwIiBzdHJva2Utd2lkdGg9IjEuNiIgd2lkdGg9IjQwIiB4PSIwIiB5PSIwIi8+PC9zdmc+;points=[[0, 0.3333333333333333], [0, 0.6666666666666666], [1, 0.3333333333333333], [1, 0.6666666666666666]];verticalLabelPosition=top;labelBackgroundColor=none;verticalAlign=bottom;aspect=fixed;imageAspect=0;fontFamily=Courier;fontSize=8;labelPosition=center;align=center;spacing=-1;fontStyle=1;syncNodeName=if;" vertex="1" parent="1">
          <mxGeometry x="840" y="400" width="40" height="40" as="geometry" />
        </mxCell>
        <mxCell id="z6b60rfDBHGYwtap1ytb-78" value="li" style="shape=image;verticalLabelPosition=bottom;labelBackgroundColor=#ffffff;verticalAlign=top;aspect=fixed;imageAspect=0;image=data:image/svg+xml,PHN2ZyB4bWxucz0iaHR0cDovL3d3dy53My5vcmcvMjAwMC9zdmciIHhtbG5zOmV2PSJodHRwOi8vd3d3LnczLm9yZy8yMDAxL3htbC1ldmVudHMiIHhtbG5zOnhsaW5rPSJodHRwOi8vd3d3LnczLm9yZy8xOTk5L3hsaW5rIiBiYXNlUHJvZmlsZT0iZnVsbCIgaGVpZ2h0PSI0MCIgdmVyc2lvbj0iMS4xIiB3aWR0aD0iNDAiIHZpZXdCb3g9IjAgMCA0MCA0MCI+PGRlZnMvPjxyZWN0IGZpbGw9IiNmZmZmZmYiIGhlaWdodD0iNDAiIHN0cm9rZT0iIzAwMDAwMCIgc3Ryb2tlLXdpZHRoPSIwLjUiIHdpZHRoPSI0MCIgeD0iMCIgeT0iMCIvPjxwb2x5Z29uIGZpbGw9IiNiZmJmYmYiIHBvaW50cz0iMCwxMy4zMzMzMzMzMzMzMzMzMzYgNi42NjY2NjY2NjY2NjY2NjYsMjAuMCAwLDI2LjY2NjY2NjY2NjY2NjY2NCAwLDEzLjMzMzMzMzMzMzMzMzMzNiIgc3Ryb2tlPSJibGFjayIgc3Ryb2tlLXdpZHRoPSIwLjgiLz48cG9seWdvbiBmaWxsPSIjYzQ3MTc5IiBwb2ludHM9IjQwLDEzLjMzMzMzMzMzMzMzMzMzNiAzMy4zMzMzMzMzMzMzMzMzMzYsMjAuMCA0MCwyNi42NjY2NjY2NjY2NjY2NjQgNDAsMTMuMzMzMzMzMzMzMzMzMzM2IiBzdHJva2U9ImJsYWNrIiBzdHJva2Utd2lkdGg9IjAuOCIvPjx0ZXh0IHN0eWxlPSJmb250LXNpemU6OHB4OyBmb250LWZhbWlseTpDb3VyaWVyO2ZvbnQtd2VpZ2h0OmJvbGQ7IiB0ZXh0LWFuY2hvcj0ibWlkZGxlIiB4PSIyMCIgeT0iMjIiPlZhcjwvdGV4dD48cmVjdCBmaWxsPSJub25lIiBoZWlnaHQ9IjQwIiBzdHJva2U9IiMwMDAwMDAiIHN0cm9rZS13aWR0aD0iMS42IiB3aWR0aD0iNDAiIHg9IjAiIHk9IjAiLz48L3N2Zz4=;points=[[0, 0.5], [1, 0.5]];verticalLabelPosition=top;labelBackgroundColor=none;verticalAlign=bottom;aspect=fixed;imageAspect=0;fontFamily=Courier;fontSize=8;labelPosition=center;align=center;spacing=-1;fontStyle=1;syncNodeName=var set;" vertex="1" parent="1">
          <mxGeometry x="360" y="200" width="40" height="40" as="geometry" />
        </mxCell>
        <mxCell id="z6b60rfDBHGYwtap1ytb-81" style="edgeStyle=orthogonalEdgeStyle;rounded=0;orthogonalLoop=1;jettySize=auto;html=1;exitX=1;exitY=0.5;exitDx=0;exitDy=0;entryX=0;entryY=0.5;entryDx=0;entryDy=0;endArrow=none;endFill=0;" edge="1" parent="1" source="z6b60rfDBHGYwtap1ytb-80" target="z6b60rfDBHGYwtap1ytb-78">
          <mxGeometry relative="1" as="geometry" />
        </mxCell>
        <mxCell id="z6b60rfDBHGYwtap1ytb-80" value="i" style="shape=image;verticalLabelPosition=bottom;labelBackgroundColor=#ffffff;verticalAlign=top;aspect=fixed;imageAspect=0;image=data:image/svg+xml,PHN2ZyB4bWxucz0iaHR0cDovL3d3dy53My5vcmcvMjAwMC9zdmciIHhtbG5zOmV2PSJodHRwOi8vd3d3LnczLm9yZy8yMDAxL3htbC1ldmVudHMiIHhtbG5zOnhsaW5rPSJodHRwOi8vd3d3LnczLm9yZy8xOTk5L3hsaW5rIiBiYXNlUHJvZmlsZT0iZnVsbCIgaGVpZ2h0PSI0MCIgdmVyc2lvbj0iMS4xIiB3aWR0aD0iNDAiIHZpZXdCb3g9IjAgMCA0MCA0MCI+PGRlZnMvPjxyZWN0IGZpbGw9IiNmZmZmZmYiIGhlaWdodD0iNDAiIHN0cm9rZT0iIzAwMDAwMCIgc3Ryb2tlLXdpZHRoPSIwLjUiIHdpZHRoPSI0MCIgeD0iMCIgeT0iMCIvPjxwb2x5Z29uIGZpbGw9IiNiZmJmYmYiIHBvaW50cz0iMCwxMy4zMzMzMzMzMzMzMzMzMzYgNi42NjY2NjY2NjY2NjY2NjYsMjAuMCAwLDI2LjY2NjY2NjY2NjY2NjY2NCAwLDEzLjMzMzMzMzMzMzMzMzMzNiIgc3Ryb2tlPSJibGFjayIgc3Ryb2tlLXdpZHRoPSIwLjgiLz48cG9seWdvbiBmaWxsPSIjYmZiZmJmIiBwb2ludHM9IjQwLDEzLjMzMzMzMzMzMzMzMzMzNiAzMy4zMzMzMzMzMzMzMzMzMzYsMjAuMCA0MCwyNi42NjY2NjY2NjY2NjY2NjQgNDAsMTMuMzMzMzMzMzMzMzMzMzM2IiBzdHJva2U9ImJsYWNrIiBzdHJva2Utd2lkdGg9IjAuOCIvPjx0ZXh0IHN0eWxlPSJmb250LXNpemU6OHB4OyBmb250LWZhbWlseTpDb3VyaWVyO2ZvbnQtd2VpZ2h0OmJvbGQ7IiB0ZXh0LWFuY2hvcj0ibWlkZGxlIiB4PSIyMCIgeT0iMjIiPlZhcjwvdGV4dD48cmVjdCBmaWxsPSJub25lIiBoZWlnaHQ9IjQwIiBzdHJva2U9IiMwMDAwMDAiIHN0cm9rZS13aWR0aD0iMS42IiB3aWR0aD0iNDAiIHg9IjAiIHk9IjAiLz48L3N2Zz4=;points=[[0, 0.5], [1, 0.5]];verticalLabelPosition=top;labelBackgroundColor=none;verticalAlign=bottom;aspect=fixed;imageAspect=0;fontFamily=Courier;fontSize=8;labelPosition=center;align=center;spacing=-1;fontStyle=1;syncNodeName=var;" vertex="1" parent="1">
          <mxGeometry x="280" y="200" width="40" height="40" as="geometry" />
        </mxCell>
        <mxCell id="z6b60rfDBHGYwtap1ytb-85" style="edgeStyle=orthogonalEdgeStyle;rounded=0;orthogonalLoop=1;jettySize=auto;html=1;exitX=1;exitY=0.5;exitDx=0;exitDy=0;entryX=0;entryY=0.5;entryDx=0;entryDy=0;endArrow=none;endFill=0;" edge="1" parent="1" source="z6b60rfDBHGYwtap1ytb-82" target="z6b60rfDBHGYwtap1ytb-83">
          <mxGeometry relative="1" as="geometry" />
        </mxCell>
        <mxCell id="z6b60rfDBHGYwtap1ytb-82" value="i" style="shape=image;verticalLabelPosition=bottom;labelBackgroundColor=#ffffff;verticalAlign=top;aspect=fixed;imageAspect=0;image=data:image/svg+xml,PHN2ZyB4bWxucz0iaHR0cDovL3d3dy53My5vcmcvMjAwMC9zdmciIHhtbG5zOmV2PSJodHRwOi8vd3d3LnczLm9yZy8yMDAxL3htbC1ldmVudHMiIHhtbG5zOnhsaW5rPSJodHRwOi8vd3d3LnczLm9yZy8xOTk5L3hsaW5rIiBiYXNlUHJvZmlsZT0iZnVsbCIgaGVpZ2h0PSI0MCIgdmVyc2lvbj0iMS4xIiB3aWR0aD0iNDAiIHZpZXdCb3g9IjAgMCA0MCA0MCI+PGRlZnMvPjxyZWN0IGZpbGw9IiNmZmZmZmYiIGhlaWdodD0iNDAiIHN0cm9rZT0iIzAwMDAwMCIgc3Ryb2tlLXdpZHRoPSIwLjUiIHdpZHRoPSI0MCIgeD0iMCIgeT0iMCIvPjxwb2x5Z29uIGZpbGw9IiNjNDcxNzkiIHBvaW50cz0iMCwxMy4zMzMzMzMzMzMzMzMzMzYgNi42NjY2NjY2NjY2NjY2NjYsMjAuMCAwLDI2LjY2NjY2NjY2NjY2NjY2NCAwLDEzLjMzMzMzMzMzMzMzMzMzNiIgc3Ryb2tlPSJibGFjayIgc3Ryb2tlLXdpZHRoPSIwLjgiLz48cG9seWdvbiBmaWxsPSIjYmZiZmJmIiBwb2ludHM9IjQwLDEzLjMzMzMzMzMzMzMzMzMzNiAzMy4zMzMzMzMzMzMzMzMzMzYsMjAuMCA0MCwyNi42NjY2NjY2NjY2NjY2NjQgNDAsMTMuMzMzMzMzMzMzMzMzMzM2IiBzdHJva2U9ImJsYWNrIiBzdHJva2Utd2lkdGg9IjAuOCIvPjx0ZXh0IHN0eWxlPSJmb250LXNpemU6OHB4OyBmb250LWZhbWlseTpDb3VyaWVyO2ZvbnQtd2VpZ2h0OmJvbGQ7IiB0ZXh0LWFuY2hvcj0ibWlkZGxlIiB4PSIyMCIgeT0iMjIiPlZhcjwvdGV4dD48cmVjdCBmaWxsPSJub25lIiBoZWlnaHQ9IjQwIiBzdHJva2U9IiMwMDAwMDAiIHN0cm9rZS13aWR0aD0iMS42IiB3aWR0aD0iNDAiIHg9IjAiIHk9IjAiLz48L3N2Zz4=;points=[[0, 0.5], [1, 0.5]];verticalLabelPosition=top;labelBackgroundColor=none;verticalAlign=bottom;aspect=fixed;imageAspect=0;fontFamily=Courier;fontSize=8;labelPosition=center;align=center;spacing=-1;fontStyle=1;syncNodeName=var get;" vertex="1" parent="1">
          <mxGeometry x="920" y="360" width="40" height="40" as="geometry" />
        </mxCell>
        <mxCell id="z6b60rfDBHGYwtap1ytb-89" style="edgeStyle=orthogonalEdgeStyle;rounded=0;orthogonalLoop=1;jettySize=auto;html=1;exitX=1;exitY=0.5;exitDx=0;exitDy=0;entryX=0;entryY=0.3333333333333333;entryDx=0;entryDy=0;endArrow=none;endFill=0;" edge="1" parent="1" source="z6b60rfDBHGYwtap1ytb-83" target="z6b60rfDBHGYwtap1ytb-86">
          <mxGeometry relative="1" as="geometry">
            <Array as="points">
              <mxPoint x="1060" y="380" />
              <mxPoint x="1060" y="420" />
              <mxPoint x="910" y="420" />
              <mxPoint x="910" y="453" />
            </Array>
          </mxGeometry>
        </mxCell>
        <mxCell id="z6b60rfDBHGYwtap1ytb-83" value="li" style="shape=image;verticalLabelPosition=bottom;labelBackgroundColor=#ffffff;verticalAlign=top;aspect=fixed;imageAspect=0;image=data:image/svg+xml,PHN2ZyB4bWxucz0iaHR0cDovL3d3dy53My5vcmcvMjAwMC9zdmciIHhtbG5zOmV2PSJodHRwOi8vd3d3LnczLm9yZy8yMDAxL3htbC1ldmVudHMiIHhtbG5zOnhsaW5rPSJodHRwOi8vd3d3LnczLm9yZy8xOTk5L3hsaW5rIiBiYXNlUHJvZmlsZT0iZnVsbCIgaGVpZ2h0PSI0MCIgdmVyc2lvbj0iMS4xIiB3aWR0aD0iNDAiIHZpZXdCb3g9IjAgMCA0MCA0MCI+PGRlZnMvPjxyZWN0IGZpbGw9IiNmZmZmZmYiIGhlaWdodD0iNDAiIHN0cm9rZT0iIzAwMDAwMCIgc3Ryb2tlLXdpZHRoPSIwLjUiIHdpZHRoPSI0MCIgeD0iMCIgeT0iMCIvPjxwb2x5Z29uIGZpbGw9IiNiZmJmYmYiIHBvaW50cz0iMCwxMy4zMzMzMzMzMzMzMzMzMzYgNi42NjY2NjY2NjY2NjY2NjYsMjAuMCAwLDI2LjY2NjY2NjY2NjY2NjY2NCAwLDEzLjMzMzMzMzMzMzMzMzMzNiIgc3Ryb2tlPSJibGFjayIgc3Ryb2tlLXdpZHRoPSIwLjgiLz48cG9seWdvbiBmaWxsPSIjYzQ3MTc5IiBwb2ludHM9IjQwLDEzLjMzMzMzMzMzMzMzMzMzNiAzMy4zMzMzMzMzMzMzMzMzMzYsMjAuMCA0MCwyNi42NjY2NjY2NjY2NjY2NjQgNDAsMTMuMzMzMzMzMzMzMzMzMzM2IiBzdHJva2U9ImJsYWNrIiBzdHJva2Utd2lkdGg9IjAuOCIvPjx0ZXh0IHN0eWxlPSJmb250LXNpemU6OHB4OyBmb250LWZhbWlseTpDb3VyaWVyO2ZvbnQtd2VpZ2h0OmJvbGQ7IiB0ZXh0LWFuY2hvcj0ibWlkZGxlIiB4PSIyMCIgeT0iMjIiPlZhcjwvdGV4dD48cmVjdCBmaWxsPSJub25lIiBoZWlnaHQ9IjQwIiBzdHJva2U9IiMwMDAwMDAiIHN0cm9rZS13aWR0aD0iMS42IiB3aWR0aD0iNDAiIHg9IjAiIHk9IjAiLz48L3N2Zz4=;points=[[0, 0.5], [1, 0.5]];verticalLabelPosition=top;labelBackgroundColor=none;verticalAlign=bottom;aspect=fixed;imageAspect=0;fontFamily=Courier;fontSize=8;labelPosition=center;align=center;spacing=-1;fontStyle=1;syncNodeName=var set;" vertex="1" parent="1">
          <mxGeometry x="1000" y="360" width="40" height="40" as="geometry" />
        </mxCell>
        <mxCell id="z6b60rfDBHGYwtap1ytb-93" style="edgeStyle=orthogonalEdgeStyle;rounded=0;orthogonalLoop=1;jettySize=auto;html=1;exitX=1;exitY=0.5;exitDx=0;exitDy=0;entryX=0;entryY=0.5;entryDx=0;entryDy=0;endArrow=none;endFill=0;" edge="1" parent="1" source="z6b60rfDBHGYwtap1ytb-86" target="z6b60rfDBHGYwtap1ytb-91">
          <mxGeometry relative="1" as="geometry" />
        </mxCell>
        <mxCell id="z6b60rfDBHGYwtap1ytb-86" value="any" style="shape=image;verticalLabelPosition=bottom;labelBackgroundColor=#ffffff;verticalAlign=top;aspect=fixed;imageAspect=0;image=data:image/svg+xml,PHN2ZyB4bWxucz0iaHR0cDovL3d3dy53My5vcmcvMjAwMC9zdmciIHhtbG5zOmV2PSJodHRwOi8vd3d3LnczLm9yZy8yMDAxL3htbC1ldmVudHMiIHhtbG5zOnhsaW5rPSJodHRwOi8vd3d3LnczLm9yZy8xOTk5L3hsaW5rIiBiYXNlUHJvZmlsZT0iZnVsbCIgaGVpZ2h0PSI0MCIgdmVyc2lvbj0iMS4xIiB3aWR0aD0iNDAiIHZpZXdCb3g9IjAgMCA0MCA0MCI+PGRlZnMvPjxyZWN0IGZpbGw9IiNmZmZmZmYiIGhlaWdodD0iNDAiIHN0cm9rZT0iIzAwMDAwMCIgc3Ryb2tlLXdpZHRoPSIwLjUiIHdpZHRoPSI0MCIgeD0iMCIgeT0iMCIvPjxwb2x5Z29uIGZpbGw9IiNjNDcxNzkiIHBvaW50cz0iMCw2LjY2NjY2NjY2NjY2NjY2NiA2LjY2NjY2NjY2NjY2NjY2Niw2LjY2NjY2NjY2NjY2NjY2NiA2LjY2NjY2NjY2NjY2NjY2NiwzMy4zMzMzMzMzMzMzMzMzMyAwLDMzLjMzMzMzMzMzMzMzMzMzIDAsNi42NjY2NjY2NjY2NjY2NjYiIHN0cm9rZT0iYmxhY2siIHN0cm9rZS13aWR0aD0iMC44Ii8+PHBvbHlnb24gZmlsbD0iI2M0NzE3OSIgcG9pbnRzPSI0MCwxMy4zMzMzMzMzMzMzMzMzMzYgMzMuMzMzMzMzMzMzMzMzMzM2LDIwLjAgNDAsMjYuNjY2NjY2NjY2NjY2NjY0IDQwLDEzLjMzMzMzMzMzMzMzMzMzNiIgc3Ryb2tlPSJibGFjayIgc3Ryb2tlLXdpZHRoPSIwLjgiLz48dGV4dCBzdHlsZT0iZm9udC1zaXplOjhweDsgZm9udC1mYW1pbHk6Q291cmllcjtmb250LXdlaWdodDpib2xkOyIgdGV4dC1hbmNob3I9Im1pZGRsZSIgeD0iMjAiIHk9IjIyIj5XYWl0PC90ZXh0PjxyZWN0IGZpbGw9Im5vbmUiIGhlaWdodD0iNDAiIHN0cm9rZT0iIzAwMDAwMCIgc3Ryb2tlLXdpZHRoPSIxLjYiIHdpZHRoPSI0MCIgeD0iMCIgeT0iMCIvPjwvc3ZnPg==;points=[[0, 0.25], [0, 0.3333333333333333], [0, 0.41666666666666663], [0, 0.5], [0, 0.5833333333333333], [0, 0.6666666666666666], [0, 0.75], [1, 0.5]];verticalLabelPosition=top;labelBackgroundColor=none;verticalAlign=bottom;aspect=fixed;imageAspect=0;fontFamily=Courier;fontSize=8;labelPosition=center;align=center;spacing=-1;fontStyle=1;syncNodeName=wait;" vertex="1" parent="1">
          <mxGeometry x="920" y="440" width="40" height="40" as="geometry" />
        </mxCell>
        <mxCell id="z6b60rfDBHGYwtap1ytb-103" style="edgeStyle=orthogonalEdgeStyle;rounded=0;orthogonalLoop=1;jettySize=auto;html=1;exitX=1;exitY=0.5;exitDx=0;exitDy=0;entryX=0;entryY=0.5;entryDx=0;entryDy=0;endArrow=none;endFill=0;" edge="1" parent="1" source="z6b60rfDBHGYwtap1ytb-90" target="z6b60rfDBHGYwtap1ytb-101">
          <mxGeometry relative="1" as="geometry" />
        </mxCell>
        <mxCell id="z6b60rfDBHGYwtap1ytb-90" value="i" style="shape=image;verticalLabelPosition=bottom;labelBackgroundColor=#ffffff;verticalAlign=top;aspect=fixed;imageAspect=0;image=data:image/svg+xml,PHN2ZyB4bWxucz0iaHR0cDovL3d3dy53My5vcmcvMjAwMC9zdmciIHhtbG5zOmV2PSJodHRwOi8vd3d3LnczLm9yZy8yMDAxL3htbC1ldmVudHMiIHhtbG5zOnhsaW5rPSJodHRwOi8vd3d3LnczLm9yZy8xOTk5L3hsaW5rIiBiYXNlUHJvZmlsZT0iZnVsbCIgaGVpZ2h0PSI0MCIgdmVyc2lvbj0iMS4xIiB3aWR0aD0iNDAiIHZpZXdCb3g9IjAgMCA0MCA0MCI+PGRlZnMvPjxyZWN0IGZpbGw9IiNmZmZmZmYiIGhlaWdodD0iNDAiIHN0cm9rZT0iIzAwMDAwMCIgc3Ryb2tlLXdpZHRoPSIwLjUiIHdpZHRoPSI0MCIgeD0iMCIgeT0iMCIvPjxwb2x5Z29uIGZpbGw9IiNiZmJmYmYiIHBvaW50cz0iMCwxMy4zMzMzMzMzMzMzMzMzMzYgNi42NjY2NjY2NjY2NjY2NjYsMjAuMCAwLDI2LjY2NjY2NjY2NjY2NjY2NCAwLDEzLjMzMzMzMzMzMzMzMzMzNiIgc3Ryb2tlPSJibGFjayIgc3Ryb2tlLXdpZHRoPSIwLjgiLz48cG9seWdvbiBmaWxsPSIjYzQ3MTc5IiBwb2ludHM9IjQwLDEzLjMzMzMzMzMzMzMzMzMzNiAzMy4zMzMzMzMzMzMzMzMzMzYsMjAuMCA0MCwyNi42NjY2NjY2NjY2NjY2NjQgNDAsMTMuMzMzMzMzMzMzMzMzMzM2IiBzdHJva2U9ImJsYWNrIiBzdHJva2Utd2lkdGg9IjAuOCIvPjx0ZXh0IHN0eWxlPSJmb250LXNpemU6OHB4OyBmb250LWZhbWlseTpDb3VyaWVyO2ZvbnQtd2VpZ2h0OmJvbGQ7IiB0ZXh0LWFuY2hvcj0ibWlkZGxlIiB4PSIyMCIgeT0iMjIiPlZhcjwvdGV4dD48cmVjdCBmaWxsPSJub25lIiBoZWlnaHQ9IjQwIiBzdHJva2U9IiMwMDAwMDAiIHN0cm9rZS13aWR0aD0iMS42IiB3aWR0aD0iNDAiIHg9IjAiIHk9IjAiLz48L3N2Zz4=;points=[[0, 0.5], [1, 0.5]];verticalLabelPosition=top;labelBackgroundColor=none;verticalAlign=bottom;aspect=fixed;imageAspect=0;fontFamily=Courier;fontSize=8;labelPosition=center;align=center;spacing=-1;fontStyle=1;syncNodeName=var set;" vertex="1" parent="1">
          <mxGeometry x="1000" y="520" width="40" height="40" as="geometry" />
        </mxCell>
        <mxCell id="z6b60rfDBHGYwtap1ytb-94" style="edgeStyle=orthogonalEdgeStyle;rounded=0;orthogonalLoop=1;jettySize=auto;html=1;exitX=1;exitY=0.5;exitDx=0;exitDy=0;entryX=0;entryY=0.5;entryDx=0;entryDy=0;endArrow=none;endFill=0;" edge="1" parent="1" source="z6b60rfDBHGYwtap1ytb-91" target="z6b60rfDBHGYwtap1ytb-92">
          <mxGeometry relative="1" as="geometry" />
        </mxCell>
        <mxCell id="z6b60rfDBHGYwtap1ytb-91" value="i" style="shape=image;verticalLabelPosition=bottom;labelBackgroundColor=#ffffff;verticalAlign=top;aspect=fixed;imageAspect=0;image=data:image/svg+xml,PHN2ZyB4bWxucz0iaHR0cDovL3d3dy53My5vcmcvMjAwMC9zdmciIHhtbG5zOmV2PSJodHRwOi8vd3d3LnczLm9yZy8yMDAxL3htbC1ldmVudHMiIHhtbG5zOnhsaW5rPSJodHRwOi8vd3d3LnczLm9yZy8xOTk5L3hsaW5rIiBiYXNlUHJvZmlsZT0iZnVsbCIgaGVpZ2h0PSI0MCIgdmVyc2lvbj0iMS4xIiB3aWR0aD0iNDAiIHZpZXdCb3g9IjAgMCA0MCA0MCI+PGRlZnMvPjxyZWN0IGZpbGw9IiNmZmZmZmYiIGhlaWdodD0iNDAiIHN0cm9rZT0iIzAwMDAwMCIgc3Ryb2tlLXdpZHRoPSIwLjUiIHdpZHRoPSI0MCIgeD0iMCIgeT0iMCIvPjxwb2x5Z29uIGZpbGw9IiNjNDcxNzkiIHBvaW50cz0iMCwxMy4zMzMzMzMzMzMzMzMzMzYgNi42NjY2NjY2NjY2NjY2NjYsMjAuMCAwLDI2LjY2NjY2NjY2NjY2NjY2NCAwLDEzLjMzMzMzMzMzMzMzMzMzNiIgc3Ryb2tlPSJibGFjayIgc3Ryb2tlLXdpZHRoPSIwLjgiLz48cG9seWdvbiBmaWxsPSIjYmZiZmJmIiBwb2ludHM9IjQwLDEzLjMzMzMzMzMzMzMzMzMzNiAzMy4zMzMzMzMzMzMzMzMzMzYsMjAuMCA0MCwyNi42NjY2NjY2NjY2NjY2NjQgNDAsMTMuMzMzMzMzMzMzMzMzMzM2IiBzdHJva2U9ImJsYWNrIiBzdHJva2Utd2lkdGg9IjAuOCIvPjx0ZXh0IHN0eWxlPSJmb250LXNpemU6OHB4OyBmb250LWZhbWlseTpDb3VyaWVyO2ZvbnQtd2VpZ2h0OmJvbGQ7IiB0ZXh0LWFuY2hvcj0ibWlkZGxlIiB4PSIyMCIgeT0iMjIiPlZhcjwvdGV4dD48cmVjdCBmaWxsPSJub25lIiBoZWlnaHQ9IjQwIiBzdHJva2U9IiMwMDAwMDAiIHN0cm9rZS13aWR0aD0iMS42IiB3aWR0aD0iNDAiIHg9IjAiIHk9IjAiLz48L3N2Zz4=;points=[[0, 0.5], [1, 0.5]];verticalLabelPosition=top;labelBackgroundColor=none;verticalAlign=bottom;aspect=fixed;imageAspect=0;fontFamily=Courier;fontSize=8;labelPosition=center;align=center;spacing=-1;fontStyle=1;syncNodeName=var get;" vertex="1" parent="1">
          <mxGeometry x="1000" y="440" width="40" height="40" as="geometry" />
        </mxCell>
        <mxCell id="z6b60rfDBHGYwtap1ytb-95" style="edgeStyle=orthogonalEdgeStyle;rounded=0;orthogonalLoop=1;jettySize=auto;html=1;exitX=1;exitY=0.5;exitDx=0;exitDy=0;entryX=0;entryY=0.5;entryDx=0;entryDy=0;endArrow=none;endFill=0;" edge="1" parent="1" source="z6b60rfDBHGYwtap1ytb-92" target="z6b60rfDBHGYwtap1ytb-90">
          <mxGeometry relative="1" as="geometry" />
        </mxCell>
        <mxCell id="z6b60rfDBHGYwtap1ytb-92" value="" style="shape=image;verticalLabelPosition=bottom;labelBackgroundColor=#ffffff;verticalAlign=top;aspect=fixed;imageAspect=0;image=data:image/svg+xml,PHN2ZyB4bWxucz0iaHR0cDovL3d3dy53My5vcmcvMjAwMC9zdmciIHhtbG5zOmV2PSJodHRwOi8vd3d3LnczLm9yZy8yMDAxL3htbC1ldmVudHMiIHhtbG5zOnhsaW5rPSJodHRwOi8vd3d3LnczLm9yZy8xOTk5L3hsaW5rIiBiYXNlUHJvZmlsZT0iZnVsbCIgaGVpZ2h0PSI0MCIgdmVyc2lvbj0iMS4xIiB3aWR0aD0iNDAiIHZpZXdCb3g9IjAgMCA0MCA0MCI+PGRlZnMvPjxyZWN0IGZpbGw9IiNmZmZmZmYiIGhlaWdodD0iNDAiIHN0cm9rZT0iIzAwMDAwMCIgc3Ryb2tlLXdpZHRoPSIwLjUiIHdpZHRoPSI0MCIgeD0iMCIgeT0iMCIvPjxwb2x5Z29uIGZpbGw9IiM4OGQxYzkiIHBvaW50cz0iMCwxMy4zMzMzMzMzMzMzMzMzMzYgNi42NjY2NjY2NjY2NjY2NjYsMjAuMCAwLDI2LjY2NjY2NjY2NjY2NjY2NCAwLDEzLjMzMzMzMzMzMzMzMzMzNiIgc3Ryb2tlPSJibGFjayIgc3Ryb2tlLXdpZHRoPSIwLjgiLz48cG9seWdvbiBmaWxsPSIjODhkMWM5IiBwb2ludHM9IjQwLDEzLjMzMzMzMzMzMzMzMzMzNiAzMy4zMzMzMzMzMzMzMzMzMzYsMjAuMCA0MCwyNi42NjY2NjY2NjY2NjY2NjQgNDAsMTMuMzMzMzMzMzMzMzMzMzM2IiBzdHJva2U9ImJsYWNrIiBzdHJva2Utd2lkdGg9IjAuOCIvPjx0ZXh0IHN0eWxlPSJmb250LXNpemU6OHB4OyBmb250LWZhbWlseTpDb3VyaWVyO2ZvbnQtd2VpZ2h0OmJvbGQ7IiB0ZXh0LWFuY2hvcj0ibWlkZGxlIiB4PSIyMCIgeT0iMjIiPkluYzwvdGV4dD48cmVjdCBmaWxsPSJub25lIiBoZWlnaHQ9IjQwIiBzdHJva2U9IiMwMDAwMDAiIHN0cm9rZS13aWR0aD0iMS42IiB3aWR0aD0iNDAiIHg9IjAiIHk9IjAiLz48L3N2Zz4=;points=[[0, 0.5], [1, 0.5]];verticalLabelPosition=top;labelBackgroundColor=none;verticalAlign=bottom;aspect=fixed;imageAspect=0;fontFamily=Courier;fontSize=8;labelPosition=center;align=center;spacing=-1;fontStyle=1;syncNodeName=inc;" vertex="1" parent="1">
          <mxGeometry x="920" y="520" width="40" height="40" as="geometry" />
        </mxCell>
        <mxCell id="z6b60rfDBHGYwtap1ytb-98" style="edgeStyle=orthogonalEdgeStyle;rounded=0;orthogonalLoop=1;jettySize=auto;html=1;exitX=1;exitY=0.5;exitDx=0;exitDy=0;entryX=0;entryY=0.3333333333333333;entryDx=0;entryDy=0;endArrow=none;endFill=0;" edge="1" parent="1" source="z6b60rfDBHGYwtap1ytb-97" target="z6b60rfDBHGYwtap1ytb-71">
          <mxGeometry relative="1" as="geometry" />
        </mxCell>
        <mxCell id="z6b60rfDBHGYwtap1ytb-97" value="newValue" style="shape=image;verticalLabelPosition=bottom;labelBackgroundColor=#ffffff;verticalAlign=top;aspect=fixed;imageAspect=0;image=data:image/svg+xml,PHN2ZyB4bWxucz0iaHR0cDovL3d3dy53My5vcmcvMjAwMC9zdmciIHhtbG5zOmV2PSJodHRwOi8vd3d3LnczLm9yZy8yMDAxL3htbC1ldmVudHMiIHhtbG5zOnhsaW5rPSJodHRwOi8vd3d3LnczLm9yZy8xOTk5L3hsaW5rIiBiYXNlUHJvZmlsZT0iZnVsbCIgaGVpZ2h0PSI0MCIgdmVyc2lvbj0iMS4xIiB3aWR0aD0iNDAiIHZpZXdCb3g9IjAgMCA0MCA0MCI+PGRlZnMvPjxyZWN0IGZpbGw9IiNmZmZmZmYiIGhlaWdodD0iNDAiIHN0cm9rZT0iIzAwMDAwMCIgc3Ryb2tlLXdpZHRoPSIwLjUiIHdpZHRoPSI0MCIgeD0iMCIgeT0iMCIvPjxwb2x5Z29uIGZpbGw9IiNjNDcxNzkiIHBvaW50cz0iMCwxMy4zMzMzMzMzMzMzMzMzMzYgNi42NjY2NjY2NjY2NjY2NjYsMjAuMCAwLDI2LjY2NjY2NjY2NjY2NjY2NCAwLDEzLjMzMzMzMzMzMzMzMzMzNiIgc3Ryb2tlPSJibGFjayIgc3Ryb2tlLXdpZHRoPSIwLjgiLz48cG9seWdvbiBmaWxsPSIjYmZiZmJmIiBwb2ludHM9IjQwLDEzLjMzMzMzMzMzMzMzMzMzNiAzMy4zMzMzMzMzMzMzMzMzMzYsMjAuMCA0MCwyNi42NjY2NjY2NjY2NjY2NjQgNDAsMTMuMzMzMzMzMzMzMzMzMzM2IiBzdHJva2U9ImJsYWNrIiBzdHJva2Utd2lkdGg9IjAuOCIvPjx0ZXh0IHN0eWxlPSJmb250LXNpemU6OHB4OyBmb250LWZhbWlseTpDb3VyaWVyO2ZvbnQtd2VpZ2h0OmJvbGQ7IiB0ZXh0LWFuY2hvcj0ibWlkZGxlIiB4PSIyMCIgeT0iMjIiPlZhcjwvdGV4dD48cmVjdCBmaWxsPSJub25lIiBoZWlnaHQ9IjQwIiBzdHJva2U9IiMwMDAwMDAiIHN0cm9rZS13aWR0aD0iMS42IiB3aWR0aD0iNDAiIHg9IjAiIHk9IjAiLz48L3N2Zz4=;points=[[0, 0.5], [1, 0.5]];verticalLabelPosition=top;labelBackgroundColor=none;verticalAlign=bottom;aspect=fixed;imageAspect=0;fontFamily=Courier;fontSize=8;labelPosition=center;align=center;spacing=-1;fontStyle=1;syncNodeName=var get;" vertex="1" parent="1">
          <mxGeometry x="680" y="360" width="40" height="40" as="geometry" />
        </mxCell>
        <mxCell id="z6b60rfDBHGYwtap1ytb-104" style="edgeStyle=orthogonalEdgeStyle;rounded=0;orthogonalLoop=1;jettySize=auto;html=1;exitX=1;exitY=0.5;exitDx=0;exitDy=0;entryX=0;entryY=0.5;entryDx=0;entryDy=0;endArrow=none;endFill=0;" edge="1" parent="1" source="z6b60rfDBHGYwtap1ytb-100" target="z6b60rfDBHGYwtap1ytb-69">
          <mxGeometry relative="1" as="geometry">
            <Array as="points">
              <mxPoint x="1060" y="620" />
              <mxPoint x="1060" y="660" />
              <mxPoint x="160" y="660" />
              <mxPoint x="160" y="340" />
            </Array>
          </mxGeometry>
        </mxCell>
        <mxCell id="z6b60rfDBHGYwtap1ytb-100" value="oldValue" style="shape=image;verticalLabelPosition=bottom;labelBackgroundColor=#ffffff;verticalAlign=top;aspect=fixed;imageAspect=0;image=data:image/svg+xml,PHN2ZyB4bWxucz0iaHR0cDovL3d3dy53My5vcmcvMjAwMC9zdmciIHhtbG5zOmV2PSJodHRwOi8vd3d3LnczLm9yZy8yMDAxL3htbC1ldmVudHMiIHhtbG5zOnhsaW5rPSJodHRwOi8vd3d3LnczLm9yZy8xOTk5L3hsaW5rIiBiYXNlUHJvZmlsZT0iZnVsbCIgaGVpZ2h0PSI0MCIgdmVyc2lvbj0iMS4xIiB3aWR0aD0iNDAiIHZpZXdCb3g9IjAgMCA0MCA0MCI+PGRlZnMvPjxyZWN0IGZpbGw9IiNmZmZmZmYiIGhlaWdodD0iNDAiIHN0cm9rZT0iIzAwMDAwMCIgc3Ryb2tlLXdpZHRoPSIwLjUiIHdpZHRoPSI0MCIgeD0iMCIgeT0iMCIvPjxwb2x5Z29uIGZpbGw9IiNiZmJmYmYiIHBvaW50cz0iMCwxMy4zMzMzMzMzMzMzMzMzMzYgNi42NjY2NjY2NjY2NjY2NjYsMjAuMCAwLDI2LjY2NjY2NjY2NjY2NjY2NCAwLDEzLjMzMzMzMzMzMzMzMzMzNiIgc3Ryb2tlPSJibGFjayIgc3Ryb2tlLXdpZHRoPSIwLjgiLz48cG9seWdvbiBmaWxsPSIjYzQ3MTc5IiBwb2ludHM9IjQwLDEzLjMzMzMzMzMzMzMzMzMzNiAzMy4zMzMzMzMzMzMzMzMzMzYsMjAuMCA0MCwyNi42NjY2NjY2NjY2NjY2NjQgNDAsMTMuMzMzMzMzMzMzMzMzMzM2IiBzdHJva2U9ImJsYWNrIiBzdHJva2Utd2lkdGg9IjAuOCIvPjx0ZXh0IHN0eWxlPSJmb250LXNpemU6OHB4OyBmb250LWZhbWlseTpDb3VyaWVyO2ZvbnQtd2VpZ2h0OmJvbGQ7IiB0ZXh0LWFuY2hvcj0ibWlkZGxlIiB4PSIyMCIgeT0iMjIiPlZhcjwvdGV4dD48cmVjdCBmaWxsPSJub25lIiBoZWlnaHQ9IjQwIiBzdHJva2U9IiMwMDAwMDAiIHN0cm9rZS13aWR0aD0iMS42IiB3aWR0aD0iNDAiIHg9IjAiIHk9IjAiLz48L3N2Zz4=;points=[[0, 0.5], [1, 0.5]];verticalLabelPosition=top;labelBackgroundColor=none;verticalAlign=bottom;aspect=fixed;imageAspect=0;fontFamily=Courier;fontSize=8;labelPosition=center;align=center;spacing=-1;fontStyle=1;syncNodeName=var set;" vertex="1" parent="1">
          <mxGeometry x="1000" y="600" width="40" height="40" as="geometry" />
        </mxCell>
        <mxCell id="z6b60rfDBHGYwtap1ytb-102" style="edgeStyle=orthogonalEdgeStyle;rounded=0;orthogonalLoop=1;jettySize=auto;html=1;exitX=1;exitY=0.5;exitDx=0;exitDy=0;entryX=0;entryY=0.5;entryDx=0;entryDy=0;endArrow=none;endFill=0;" edge="1" parent="1" source="z6b60rfDBHGYwtap1ytb-101" target="z6b60rfDBHGYwtap1ytb-100">
          <mxGeometry relative="1" as="geometry" />
        </mxCell>
        <mxCell id="z6b60rfDBHGYwtap1ytb-101" value="newValue" style="shape=image;verticalLabelPosition=bottom;labelBackgroundColor=#ffffff;verticalAlign=top;aspect=fixed;imageAspect=0;image=data:image/svg+xml,PHN2ZyB4bWxucz0iaHR0cDovL3d3dy53My5vcmcvMjAwMC9zdmciIHhtbG5zOmV2PSJodHRwOi8vd3d3LnczLm9yZy8yMDAxL3htbC1ldmVudHMiIHhtbG5zOnhsaW5rPSJodHRwOi8vd3d3LnczLm9yZy8xOTk5L3hsaW5rIiBiYXNlUHJvZmlsZT0iZnVsbCIgaGVpZ2h0PSI0MCIgdmVyc2lvbj0iMS4xIiB3aWR0aD0iNDAiIHZpZXdCb3g9IjAgMCA0MCA0MCI+PGRlZnMvPjxyZWN0IGZpbGw9IiNmZmZmZmYiIGhlaWdodD0iNDAiIHN0cm9rZT0iIzAwMDAwMCIgc3Ryb2tlLXdpZHRoPSIwLjUiIHdpZHRoPSI0MCIgeD0iMCIgeT0iMCIvPjxwb2x5Z29uIGZpbGw9IiNjNDcxNzkiIHBvaW50cz0iMCwxMy4zMzMzMzMzMzMzMzMzMzYgNi42NjY2NjY2NjY2NjY2NjYsMjAuMCAwLDI2LjY2NjY2NjY2NjY2NjY2NCAwLDEzLjMzMzMzMzMzMzMzMzMzNiIgc3Ryb2tlPSJibGFjayIgc3Ryb2tlLXdpZHRoPSIwLjgiLz48cG9seWdvbiBmaWxsPSIjYmZiZmJmIiBwb2ludHM9IjQwLDEzLjMzMzMzMzMzMzMzMzMzNiAzMy4zMzMzMzMzMzMzMzMzMzYsMjAuMCA0MCwyNi42NjY2NjY2NjY2NjY2NjQgNDAsMTMuMzMzMzMzMzMzMzMzMzM2IiBzdHJva2U9ImJsYWNrIiBzdHJva2Utd2lkdGg9IjAuOCIvPjx0ZXh0IHN0eWxlPSJmb250LXNpemU6OHB4OyBmb250LWZhbWlseTpDb3VyaWVyO2ZvbnQtd2VpZ2h0OmJvbGQ7IiB0ZXh0LWFuY2hvcj0ibWlkZGxlIiB4PSIyMCIgeT0iMjIiPlZhcjwvdGV4dD48cmVjdCBmaWxsPSJub25lIiBoZWlnaHQ9IjQwIiBzdHJva2U9IiMwMDAwMDAiIHN0cm9rZS13aWR0aD0iMS42IiB3aWR0aD0iNDAiIHg9IjAiIHk9IjAiLz48L3N2Zz4=;points=[[0, 0.5], [1, 0.5]];verticalLabelPosition=top;labelBackgroundColor=none;verticalAlign=bottom;aspect=fixed;imageAspect=0;fontFamily=Courier;fontSize=8;labelPosition=center;align=center;spacing=-1;fontStyle=1;syncNodeName=var get;" vertex="1" parent="1">
          <mxGeometry x="920" y="600" width="40" height="40" as="geometry" />
        </mxCell>
      </root>
    </mxGraphModel>
  </diagram>
</mxfile>
